# Max2Obj Version 4.0 Mar 10th, 2001
#
# object wall_xn to come ...
#
v  -0.500000 0.000000 0.500000
v  -0.500000 0.000000 -0.500000
v  -0.500000 1.000000 0.500000
v  -0.500000 1.000000 -0.500000
# 4 vertices

vt  1.000000 0.000000 0.000000
vt  0.000000 0.000000 0.000000
vt  1.000000 1.000000 0.000000
vt  0.000000 1.000000 0.000000
# 4 texture vertices

vn  1.000000 0.000000 -0.000000
vn  1.000000 0.000000 -0.000000
vn  1.000000 0.000000 -0.000000
vn  1.000000 0.000000 -0.000000
# 4 vertex normals

g wall_xn
s 64
f 2/2/2 4/4/4 3/3/3
f 3/3/3 1/1/1 2/2/2
# 2 faces

g
