# Max2Obj Version 4.0 Mar 10th, 2001
#
# object Sphere01 to come ...
#
v  0.000000 0.010000 -0.000000
v  -0.000000 0.007071 -0.007071
v  -0.005000 0.007071 -0.005000
v  -0.007071 0.007071 0.000000
v  -0.005000 0.007071 0.005000
v  0.000000 0.007071 0.007071
v  0.005000 0.007071 0.005000
v  0.007071 0.007071 0.000000
v  0.005000 0.007071 -0.005000
v  -0.000000 -0.000000 -0.010000
v  -0.007071 -0.000000 -0.007071
v  -0.010000 -0.000000 0.000000
v  -0.007071 -0.000000 0.007071
v  0.000000 -0.000000 0.010000
v  0.007071 -0.000000 0.007071
v  0.010000 -0.000000 0.000000
v  0.007071 -0.000000 -0.007071
v  -0.000000 -0.007071 -0.007071
v  -0.005000 -0.007071 -0.005000
v  -0.007071 -0.007071 0.000000
v  -0.005000 -0.007071 0.005000
v  0.000000 -0.007071 0.007071
v  0.005000 -0.007071 0.005000
v  0.007071 -0.007071 0.000000
v  0.005000 -0.007071 -0.005000
v  0.000000 -0.010000 -0.000000
# 26 vertices

vt  0.000000 1.000000 0.000000
vt  0.125000 1.000000 0.000000
vt  0.250000 1.000000 0.000000
vt  0.375000 1.000000 0.000000
vt  0.500000 1.000000 0.000000
vt  0.625000 1.000000 0.000000
vt  0.750000 1.000000 0.000000
vt  0.875000 1.000000 0.000000
vt  1.000000 1.000000 0.000000
vt  0.000000 0.750000 0.000000
vt  0.125000 0.750000 0.000000
vt  0.250000 0.750000 0.000000
vt  0.375000 0.750000 0.000000
vt  0.500000 0.750000 0.000000
vt  0.625000 0.750000 0.000000
vt  0.750000 0.750000 0.000000
vt  0.875000 0.750000 0.000000
vt  1.000000 0.750000 0.000000
vt  0.000000 0.500000 0.000000
vt  0.125000 0.500000 0.000000
vt  0.250000 0.500000 0.000000
vt  0.375000 0.500000 0.000000
vt  0.500000 0.500000 0.000000
vt  0.625000 0.500000 0.000000
vt  0.750000 0.500000 0.000000
vt  0.875000 0.500000 0.000000
vt  1.000000 0.500000 0.000000
vt  0.000000 0.250000 0.000000
vt  0.125000 0.250000 0.000000
vt  0.250000 0.250000 0.000000
vt  0.375000 0.250000 0.000000
vt  0.500000 0.250000 0.000000
vt  0.625000 0.250000 0.000000
vt  0.750000 0.250000 0.000000
vt  0.875000 0.250000 0.000000
vt  1.000000 0.250000 0.000000
vt  0.000000 0.000000 0.000000
vt  0.125000 0.000000 0.000000
vt  0.250000 0.000000 0.000000
vt  0.375000 0.000000 0.000000
vt  0.500000 0.000000 0.000000
vt  0.625000 0.000000 0.000000
vt  0.750000 0.000000 0.000000
vt  0.875000 0.000000 0.000000
vt  1.000000 0.000000 0.000000
# 45 texture vertices

vn  0.000000 1.000000 0.000000
vn  -0.080510 0.652628 -0.753389
vn  -0.589656 0.652628 -0.475797
vn  -0.753389 0.652628 0.080510
vn  -0.475797 0.652628 0.589656
vn  0.080510 0.652628 0.753389
vn  0.589656 0.652628 0.475797
vn  0.753389 0.652628 -0.080510
vn  0.475797 0.652628 -0.589655
vn  0.000000 -0.000000 -1.000000
vn  -0.707107 -0.000000 -0.707107
vn  -1.000000 -0.000000 0.000000
vn  -0.707107 -0.000000 0.707107
vn  0.000000 -0.000000 1.000000
vn  0.707107 -0.000000 0.707107
vn  1.000000 -0.000000 0.000000
vn  0.707107 -0.000000 -0.707107
vn  0.080510 -0.652628 -0.753389
vn  -0.475797 -0.652628 -0.589656
vn  -0.753389 -0.652628 -0.080510
vn  -0.589656 -0.652628 0.475797
vn  -0.080510 -0.652628 0.753389
vn  0.475797 -0.652628 0.589656
vn  0.753389 -0.652628 0.080510
vn  0.589656 -0.652628 -0.475797
vn  0.000000 -1.000000 0.000000
# 26 vertex normals

g Sphere01
s 1
f 1/1/1 2/10/2 3/11/3
f 1/2/1 3/11/3 4/12/4
f 1/3/1 4/12/4 5/13/5
f 1/4/1 5/13/5 6/14/6
f 1/5/1 6/14/6 7/15/7
f 1/6/1 7/15/7 8/16/8
f 1/7/1 8/16/8 9/17/9
f 1/8/1 9/17/9 2/18/2
f 2/10/2 10/19/10 11/20/11
f 2/10/2 11/20/11 3/11/3
f 3/11/3 11/20/11 12/21/12
f 3/11/3 12/21/12 4/12/4
f 4/12/4 12/21/12 13/22/13
f 4/12/4 13/22/13 5/13/5
f 5/13/5 13/22/13 14/23/14
f 5/13/5 14/23/14 6/14/6
f 6/14/6 14/23/14 15/24/15
f 6/14/6 15/24/15 7/15/7
f 7/15/7 15/24/15 16/25/16
f 7/15/7 16/25/16 8/16/8
f 8/16/8 16/25/16 17/26/17
f 8/16/8 17/26/17 9/17/9
f 9/17/9 17/26/17 10/27/10
f 9/17/9 10/27/10 2/18/2
f 10/19/10 18/28/18 19/29/19
f 10/19/10 19/29/19 11/20/11
f 11/20/11 19/29/19 20/30/20
f 11/20/11 20/30/20 12/21/12
f 12/21/12 20/30/20 21/31/21
f 12/21/12 21/31/21 13/22/13
f 13/22/13 21/31/21 22/32/22
f 13/22/13 22/32/22 14/23/14
f 14/23/14 22/32/22 23/33/23
f 14/23/14 23/33/23 15/24/15
f 15/24/15 23/33/23 24/34/24
f 15/24/15 24/34/24 16/25/16
f 16/25/16 24/34/24 25/35/25
f 16/25/16 25/35/25 17/26/17
f 17/26/17 25/35/25 18/36/18
f 17/26/17 18/36/18 10/27/10
f 26/37/26 19/29/19 18/28/18
f 26/38/26 20/30/20 19/29/19
f 26/39/26 21/31/21 20/30/20
f 26/40/26 22/32/22 21/31/21
f 26/41/26 23/33/23 22/32/22
f 26/42/26 24/34/24 23/33/23
f 26/43/26 25/35/25 24/34/24
f 26/44/26 18/36/18 25/35/25
# 48 faces

g
