v -1.1591543551883960461 55.17472549065433185 7.3889076132873841019
v -1.4652925247871939618 57.691709862830407474 11.855883538581226233
v -4.6969743304217601576 53.040767168193760028 8.7702075171100677409
v 2.2803012950962879835 58.011424418854190321 6.4635609534143911858
v -4.872716663680675353 54.390249986514447755 12.229953379475158926
v 1.915885522401607588 60.278940397043335508 9.3803332310795290994
v 2.3029287880045834491 52.883631623738232008 9.3438415250987745253
v -4.5443654880578723265 58.224433964678674158 5.8284815727880125991
v -4.5422395645657953622 60.519320960440225576 8.7695462497090570508
v 2.0186157833964317732 54.198340718972403351 12.825936066029813176
v -5.6861468898558182872 60.559392283048502748 6.4417012447461665658
v -1.1438143093234443004 52.58546743971859172 8.5282035596737699734
v -6.097653215803386928 52.716687716179777112 10.825217205678049126
v 3.3218931463945122751 60.227962385228750009 7.2991428236642912353
v 3.4837708421735293918 52.487278692129336832 11.6103396932387124
v -1.1099386328025142578 57.40230862577800508 5.7745123128454807215
v -4.6907532222530550214 57.952947662182445754 11.370413503857255577
v 1.7715704357789037182 57.735379622098591312 11.966352918193379651
v 2.1164275729589623332 55.494889707361934938 7.8941248041877365438
v -4.4840937279115529179 55.683211607203347171 7.3007316275149971574
v -1.3320692214450526869 60.360343459462242777 9.409376649102124901
v -1.4375435318796097039 54.243253503287490958 12.933023011606394448
v 0.31571667128145819436 23.397264531525227227 17.841996608314399708
v 0.071339218758740940984 21.427451982857821378 13.255713812825627329
v -2.9233407394330286344 24.830393914246432274 16.413701542074711881
v 3.0033531631822696362 19.990012069039273968 18.217113463978133581
v -2.4661207756650997958 24.013354167952009277 12.934870430486622439
v 1.7590399346564549177 18.005831746548025762 15.46351766818636797
v 3.1605329018100860594 24.70551723198054006 16.099094026805101265
v -2.5348909084537560865 20.257105308978477609 18.308688992015522246
v -1.612568858175458697 18.298496956989453111 15.410131510366278818
v 2.3632960258991482227 23.798305872147050621 12.79030199347014829
v -2.8558380183025229293 17.97835036792228891 17.420099228059044094
v 0.14100055941254183156 25.831904434425307926 17.128465502537927989
v -3.8915395179691252281 25.008336825746738441 14.391020692400044112
v 3.1129972293036480835 17.62158976320032977 17.483248853470175987
v 3.7985184193492127491 24.804834990442330422 14.052942412661318272
v 0.25095602687513440809 21.504193039900378892 18.901747017159564734
v -1.7271186048160402926 20.624673303457800699 13.291594132999890121
v 1.8385608336617647041 20.313715458465278374 13.267911228211836772
v 3.2061926896479753246 22.131842832758760409 17.167203315199131453
v -2.5948947593497120323 22.327576401727117883 17.424762341234053764
v 0.058241616476481947173 18.943165378974214264 15.168514940467835217
v -0.050542764166568138196 24.710787761780309779 12.679501548746774375
v -38.087031209518855235 -45.178443741300512215 9.6052815891395386672
v -36.780698155288717999 -49.473819608338708065 11.638957062040045543
v -36.070482588074540331 -45.115012898207282888 9.4016152342822127963
v -34.651133185746083143 -47.759029992099328865 10.77845923968317976
v -40.522905097776416028 -46.548389180815540556 8.6937930624030208548
v -39.892967731363107475 -49.978691984513801572 9.7261637648949026413
v -38.738423927993714813 -44.956401466072875905 11.682172205416151201
v -38.590991659418030224 -46.759195953220107356 7.3519633961137893507
v -38.050517484555854253 -50.122979946028550557 8.5252627954348714212
v -37.727157611563974626 -47.595892898670804527 13.248184352542754283
v -38.791225840008038972 -48.854344160144393072 6.8469198312423875663
v -37.215573263773727319 -44.439627169552288422 10.667245320778675932
v -34.630096822285835856 -46.209112604705396166 9.6977463995763688587
v -36.162752237611940132 -49.63038390989445503 10.013424078506224291
v -38.649656461938498353 -46.021949389552290199 13.128160213419691971
v -41.296955097236164534 -48.660157522809697639 8.4536431686343238567
v -39.14741380473377319 -45.916973908596268927 8.3723135694011929786
v -38.650459258562037235 -49.460804890501442799 11.760947454970754222
v -39.480759297398854812 -45.552854481414911447 9.9125742213479135501
v -37.602801582946376868 -45.71065245546608935 8.5031792154434882036
v -38.43638548251302467 -50.150823914068702436 9.7820437792592560555
v -35.468247217419133221 -47.774891550828719744 12.852509231790877564
v 27.094790447424237811 -49.591290874191010118 13.328674085541384997
v 27.186980564761942247 -47.408599303329999941 14.648498176846311836
v 25.395068741747365948 -50.938385074984914525 14.53674246155537908
v 27.829023788850314247 -48.977384580035234762 13.844098972373846124
v 25.805388864996583465 -46.983450361560130659 14.732852282764399732
v 27.49902643955555348 -48.138266263193536076 16.437406634546860573
v 27.579488386039006542 -48.14422707987812089 13.435370453548209468
v 26.174623018147823217 -50.757754732883462623 13.407529599795607211
v 26.869301841397401631 -50.496668954055976997 13.195693761035492741
v 26.221864982308343173 -50.684853552970281498 16.218327893460912748
v 23.825315921723024815 -49.17395358704857955 14.416448368735478525
v 27.283447759329348514 -50.129332476176990951 13.609506679798736073
v 24.301038653797874645 -47.529888705110820979 14.329447328258693162
v 27.190552785267414038 -49.66961565800527012 16.952836592394064041
v 27.110517916579446762 -49.206330738701026917 12.923309830261025866
v 27.564357647589261546 -48.427400512708047131 13.807355323626410382
v 27.357930260835615854 -47.589395534945452937 14.010341583562709644
v 26.42216225038715649 -47.174621396854362843 15.967733914832521691
v 27.941559583506364817 -47.655994478729070352 14.644288063344964357
v 24.891176370704240384 -50.418575894714983576 13.612658719849157762
v 26.303036965889543097 -50.750005057182043799 13.731149544861269263
v 26.724261388926912275 -51.161237211174018569 14.405141908016277696
v 24.348359076950774949 -50.380658892838624752 15.826137263129066213
v -0.14903622910359315412 70.431624469508960829 -13.338007040507347867
v -0.080488086399763666967 74.975397083496517325 -13.320090018842696722
v -1.4240690799113393528 74.524488712451471883 -11.13274760252404505
v -2.5763179171570294024 71.591352553548659898 -11.974947281705494717
v 2.2680691936267272091 71.322892509601331312 -15.999742224670796986
v 0.53335343652189359798 73.994216649453406376 -16.975558256041477279
v 2.2268432315412947098 71.507152318342662056 -11.79162386478890312
v -2.2473750545114135058 71.362479925850294649 -16.134362640634233088
v -0.3402315805602920129 73.953502120633999084 -16.999672781651423037
v 1.1148171921358900338 74.508312667176326727 -11.006531459789881566
v -0.26444689007966126759 75.274005891166325455 -14.123339767387193433
v -2.8328758489478689242 73.285137242072082131 -11.044507350333235607
v 2.4947369763979367896 73.196100745618082328 -10.809967748918239749
v -1.9877582637987400993 72.72598140749649076 -17.852513910688525556
v -0.24164354616147201704 70.058637639368370742 -11.489052183144305985
v 2.199831197159329399 72.710423131538291841 -17.745448342926408714
v -0.064420807063361049116 69.921005176482836418 -15.113369079990153665
v 0.2701570346030608416 75.324605262176788756 -14.095397911596682761
v 2.2683732410749071207 71.671309299529923464 -13.969570855993380221
v -2.4193557043712314858 71.730134372493196793 -14.116688888507495037
v 0.040967617620311494453 73.843178272913107207 -16.403753911997789317
v -0.23612419145617830063 74.155962389741006291 -10.258519148503774332
v -59.405251398960231768 66.823156801226474499 -37.539119785621736014
v -53.857709611849330145 66.463105652316855299 -38.543236752583567295
v -53.792405801880718741 68.400366122120701107 -37.615709175677814358
v -56.200254944990923889 69.320338067714033059 -35.57410629761494647
v -58.969722771094588154 68.857425206956847319 -37.600524564839489017
v -57.776013511336344664 70.149623033619008083 -36.703769933262201164
v -57.847813098594812686 69.794296615828500308 -40.665687475615591495
v -58.178902960432850477 64.701020793545268361 -36.641210790451353319
v -59.095242722918612799 66.54385271499376131 -40.811230495900005621
v -54.656998575804266238 69.7449767018404998 -36.606416562602888121
v -54.366556233982251456 69.940777667217673752 -39.751142070893905611
v -55.30443005360980635 66.677039315801337693 -41.519708578926824316
v -54.704738677617370968 64.616458583424204676 -37.534650545674992372
v -53.849559108039798616 67.817348627331554667 -39.488010738468922511
v -53.991397720912807756 67.888819958384814868 -35.648955852073008543
v -57.829184775969579846 67.972724108229044759 -34.832555617391989244
v -59.244412399727224283 68.090126178414067226 -39.413467891337411686
v -56.193196609688840226 70.133649667858136922 -36.092431461395584336
v -59.190787999358775551 67.937074937873191516 -37.178120464325957073
v -58.43149033485497057 66.312724472021344013 -35.14897739838084334
v -56.150614289822641467 70.733074276380079937 -40.907781640835935377
v -58.504003539901383135 69.961978742875814419 -38.312289721188363956
v -56.282005376176826417 68.456816647272717091 -42.183271272075685943
v -59.394553710294736959 67.130599309851476164 -39.709286640324698681
v -56.42139122145554353 63.818190939865182543 -36.890449365061478204
v -59.392747260957918343 65.881998269714557637 -38.814752947496195645
v -57.527253583457074626 66.193323938375186799 -42.183694023764523706
v -55.746224517206492521 68.60671885838358719 -34.534500158155161387
v -53.622214508678055722 66.208637262636784726 -36.411260472652564602
v -53.912546831282192272 69.389559746606181534 -38.042005588862458865
v -53.660740128258424875 67.469897163947834429 -37.808918621159904205
v -54.292404481047277898 66.986582626231637505 -40.22404691807689403
v -54.5945363463239417 65.722538742295355974 -39.764598467531733661
v -53.891704286139969327 68.872770434020452512 -39.20798133449090983
v -54.544524409988284219 68.891148357567246308 -36.239194241981316225
v -58.007084962722665011 69.052630411678109112 -36.005148933365418884
v -58.772900428858527277 68.930278154847357541 -39.71595025319061989
v 56.709320587583711415 76.240746189114574349 -29.589751166968650153
v 58.306083737424913238 75.45661628339863114 -27.544131238404403916
v 54.598874987107507195 74.576757368250554237 -29.115246769325526799
v 57.620888002452538501 76.731932214995751451 -28.744749992320194565
v 56.822259406216851119 75.683577200285881759 -25.651718989678670368
v 58.194196942164481356 73.183779186680141038 -27.73436006511190044
v 58.117012515198368305 76.032403340389379309 -29.310600867546668269
v 55.214273472606080873 75.890978277153294584 -29.731934291964432049
v 55.657696381012094378 75.614091517345343618 -30.137365853445704289
v 55.44133401785050097 72.686197127992471678 -28.82097488188189871
v 54.023628043432935897 74.925130668198619333 -26.874986090374395786
v 56.595788514252433288 76.405358056485255247 -29.721520501510319434
v 55.015865921760287449 75.646658140984072816 -25.475226828435694415
v 57.029605433823704175 72.150149165344188873 -28.427057440889445417
v 56.844574766461903437 76.305641879976889186 -29.855047364464397219
v 57.908044982279989199 76.194519759403945613 -28.686417072809440754
v 57.752325359435275232 76.525808625432887311 -27.269156575147093236
v 57.893828148013511736 74.253400800401266224 -26.178182956594937991
v 58.690367876762493893 74.890809327311714583 -28.650420544227927167
v 54.270050153098786438 75.395640907179213741 -28.743163154098404277
v 55.388910729716052117 75.553276704334237479 -29.748941405495187951
v 55.139629498009050224 74.278032331917415831 -29.916405868756765329
v 54.327876440504546451 73.498171038659421583 -27.757514862526726063
v 53.669182443343885325 81.933807939180965718 -28.034092284987210064
v 51.961280417975089563 81.447810125738328679 -28.438572940609812889
v 54.905469346980531498 83.444840448112259423 -28.368128953246646518
v 52.082777811166700133 82.553397336781770832 -28.706084964313710373
v 52.74059109754043817 80.735223938488687168 -30.173188696404181997
v 52.026330202414825976 81.254102104497476944 -27.854665789098699946
v 53.095569591623359429 81.64009478902234207 -29.388897158122603059
v 53.838750534541155446 83.94446099687237961 -28.647360949907799466
v 54.489700470168742186 82.957772025942929872 -29.139301084511494366
v 54.5409032643679339 82.524757507335408491 -27.063735984308923577
v 55.421529767225365504 82.16148841952688997 -29.736635917738205137
v 53.116119958433870352 81.889619009468418653 -26.732235448270138534
v 52.912158673739043024 83.207286633291303701 -28.161610859445893595
v 54.485411945204788253 81.086139465427820028 -30.669731260682357998
v 53.954586768840236743 82.143084453281105084 -29.257080270117917564
v 53.162733350789487474 81.684366196113302294 -28.034233951611742697
v 51.885046130460892755 81.871017345406627896 -29.504436656903450853
v 52.244586095260068248 80.636686361681540802 -28.957582862170450966
v 51.961386188128763308 81.853050766968507901 -29.140799280282557504
v 54.926825009044542014 83.434184967053553805 -29.184134506612071647
v 54.349369494895192645 82.280512334988628709 -27.820829409879770822
v 54.678215735882041315 83.481058649621644463 -27.883421806151154954
v 55.5679311889841685 82.20114784414285225 -28.006558232201683722
v 27.566771529275648334 -48.910008849097565076 5.4828255826549243679
v 27.174505938947827843 -46.803236077071119325 6.6106200765563505328
v 27.319125950604078668 -50.714434656520616329 6.9567373623781687542
v 27.498060732154986141 -47.901933937595160273 5.2377588934986158975
v 27.491272221798578101 -47.398365993697147758 5.6844344950485110601
v 25.327410279438471008 -47.69643270980868266 7.3316256216013808711
v 28.435050488498259114 -47.24982969438555358 7.6749246742292145385
v 27.228276537526038936 -50.213338314970961562 5.8105917663621209357
v 28.680274687806878831 -50.107038630295271275 8.1456841016366929864
v 26.152065675028321579 -50.510183496885389332 7.5569987228668482615
v 28.107947309785870971 -49.706545663002003721 6.1072887634174497506
v 25.053790019023129076 -49.349322877831440337 7.5330407503391745294
v 29.230409461808473992 -48.511247970598638801 8.2351259103188709787
v 28.153773768565816482 -48.52590204485476022 5.8509062975486907376
v 27.053793225728526295 -49.15034072052660008 5.2962447369364502592
v 28.166758356210280567 -47.156320161507487398 6.1359421373884490691
v 27.48367585509991784 -47.500249009176926052 5.6993936062026415712
v 26.31710256304740625 -47.016805989135718846 6.2144506972562929548
v 26.702158524734947775 -46.828071456477388779 7.8916509664016381009
v 27.737086975639773101 -49.927880394463393543 5.9571151778356208339
v 27.862193554645887872 -50.775700188216504216 6.8207043551510642132
v 27.357563501464461808 -50.614440234143685871 8.1931683422330401356
v 27.1444188583083168 -50.659903153687118049 6.5641480029060774726
v -47.997046368492931379 61.53360740686630237 -21.110013217353575499
v -48.234241150344033144 62.600649058971207239 -20.661217572565519163
v -49.110489555646964277 63.046759312998581493 -20.000206809758541482
v -50.085663685498644782 62.608778017250322989 -19.534287168448244643
v -50.589864104426872871 61.576840776156231527 -19.52350552581489751
v -50.352946752825261001 60.538546139889611197 -19.964105177373678401
v -49.511020092635234846 60.088609895489149437 -20.599093761771733568
v -48.536186012741147522 60.486692370084391257 -21.079349493570870067
v 1.5055397235928595912 37.988369515860512138 14.027233180489432129
v 0.72089946483205402661 37.793866014663642261 12.721796531018227938
v -0.87932424225369998361 37.682856511891479556 12.275226622963499423
v -2.5074851831865263563 37.646054031874321311 12.677112662843617485
v -3.3257967143371924834 37.789811691045379405 13.984050514742492055
v -2.6048355551207302838 38.017038541480246749 15.33503082873257739
v -0.90322008369415196505 38.191624626846618185 15.837768322444015112
v 0.78905301560259799576 38.154243802513136075 15.356234411482944324
v 49.216137887514321392 62.542750379642519931 -15.469741482462287863
v 49.206062780783405231 63.435776702135001415 -14.707325739735049197
v 49.945274651270018751 63.817370567827524042 -13.866759964499072666
v 50.984065146144601499 63.455928943608327586 -13.462848294139684313
v 51.695066870925913349 62.58492778385562616 -13.721672216593788107
v 51.6855613928803308 61.720111431462768792 -14.468906031940614199
v 50.973280961704482195 61.342505373459573548 -15.282629720164180753
v 49.952718317973065609 61.677136597235282522 -15.701997830380575394
v -30.610662686770183427 58.332537401351437722 -0.88204326927786402823
v -30.69551111524285858 59.466408814519297721 -0.78185780526904469223
v -31.239630993218195698 60.16308108469656446 -0.055766370939606957347
v -31.89468322359179453 59.971523859933185463 0.83593652834176235267
v -32.281395807911373197 59.065356129142777775 1.3652135830698237662
v -32.205430616060738203 57.960980415354811157 1.2620365594311007129
v -31.693294433350271078 57.271881569546593482 0.56879082658499280356
v -31.024866092463543765 57.422752985258391334 -0.32793489988521618006
v 24.014957267740065561 -46.923407651017861042 19.094891381874489866
v 23.196031121948870179 -46.685235548145108453 18.221729945686785612
v 22.01741484553155459 -47.183514422426981128 17.868602815554599061
v 21.38514738585045194 -48.205009827847909776 18.276834419036635637
v 21.631453365175655534 -49.018177596124218098 19.231245738937062129
v 22.587566629995315282 -49.200041936678047705 19.989318837919011429
v 23.594808746002343014 -48.648304600944449305 20.363329454366155602
v 24.218388404166667272 -47.676983147005039143 19.956862091806595316
v 23.227887206475550386 -37.172198945154654837 21.113662416928448806
v 22.713310178007354523 -37.374165909672399266 20.086571797066419265
v 21.597637343301713031 -37.376453358599960097 19.687486106487657622
v 20.577451768484024797 -37.188185478967177744 20.17506824239604768
v 20.27145385093566432 -36.943046623232959291 21.219671520010606969
v 20.797027088479488555 -36.770977144117885871 22.176555503806717695
v 21.832837908691303141 -36.747021717609477776 22.561474659917255536
v 22.849048035486859476 -36.903794014732454798 22.141840837378037321
v -0.76076189552439199559 68.740577149551157277 -1.04004662010538107
v 0.65017062552487892013 68.509923335551150103 -1.2226273377019838406
v 1.52951879444647032 67.608092791529500687 -1.885502082337676466
v 1.0079523223838768864 66.34162310204489188 -2.6985807813192064231
v -0.68026898769751642515 65.787077973542963605 -3.0543259298568363747
v -2.3804468897003632222 66.386293133508175401 -2.8884153570916373255
v -2.9596382603169248959 67.671223583731531903 -2.1424380935268172443
v -2.1421916007793089243 68.544574344133579302 -1.3812789950154826801
v -41.195511027496976908 58.866818832879175716 -11.706019490346676548
v -41.366099718347882686 59.940401935878739437 -11.394901415821452773
v -42.095118156428966927 60.454556588183741894 -10.698437742761939262
v -42.933892161474140892 60.098089049630978309 -10.045326574121006047
v -43.382454512375630884 59.113765370416786027 -9.823785121030500278
v -43.209635407610463176 58.084532280650549296 -10.13381784161094501
v -42.510568175566142202 57.568657824603896245 -10.803196657617965215
v -41.672844105013119531 57.888683699347566858 -11.456822584035684542
v 24.617775608776796048 -30.608376310732733572 17.993526988011765866
v 24.162066041436990105 -31.00617971931000838 17.011532037993958966
v 23.104562744737471292 -31.035389834993935665 16.545548633164163022
v 22.055077200994773534 -30.675365492409632395 16.877703486765366137
v 21.656746144818928457 -30.149629865158527053 17.810856513052474526
v 22.116485986197183422 -29.769092716348808381 18.774644674112757059
v 23.153565752730742133 -29.736679601460764388 19.229950806739164904
v 24.192056658420511894 -30.077107021286732191 18.917829364373254464
v -31.363048580334169202 -37.832460313788416784 13.405014417119605952
v -32.550817237906485957 -37.580374944041679441 13.225433541136613513
v -33.500369168021777 -37.335128424852570106 13.956113500196586585
v -33.675852858187973027 -37.216999923595636801 15.148024185883397053
v -32.964311114738137576 -37.34082709028700009 16.08668975347058705
v -31.846785299099344968 -37.624405790794646975 16.214008477338101244
v -30.936077905475492855 -37.867212532869075403 15.531213646701276687
v -30.71452525182534643 -37.954338894433973906 14.386438471572947861
v -32.597089674226992884 -42.43516716466899652 12.911747018307050183
v -33.750155243858976917 -41.776903990809039158 12.640661817171196191
v -34.823563022009608403 -41.477580059080295882 13.353997661490176085
v -35.336599271641894404 -41.612252306981488914 14.528817530454396945
v -34.905051585857613361 -42.221989001523503759 15.602111570289793008
v -33.882335921746040697 -42.921440077167630989 15.814073901141359357
v -32.729969460024243233 -43.233271004753383693 15.215548003779186814
v -32.216704752133388467 -43.079751103727147665 13.960313779789808919
v 22.422749172536093454 -43.599213646892415852 21.95316537586380079
v 21.762004280254771516 -43.504427669056958905 20.958870042269019507
v 20.596567076678834241 -43.678608341956021377 20.665063547937350563
v 19.661773371311085157 -44.043308717071326441 21.280413684383184147
v 19.56506929917771842 -44.361355038260299466 22.357300050862026097
v 20.227696957506992703 -44.430101206875526998 23.234176370824449975
v 21.261837318735533842 -44.233081634230586587 23.533867951426024945
v 22.190702954174835071 -43.888910548927071886 23.043836617136285838
v 45.022889526416953743 57.886267689267931758 -10.202815183160575785
v 45.069207870748591915 58.86197181809773582 -9.5838222225150175859
v 45.762772271460626428 59.25512743836551266 -8.7327353877303472984
v 46.675451444196141892 58.823185477702843116 -8.1757091835364583687
v 47.252932663658867796 57.85333829289164953 -8.2395760643786388755
v 47.180980729746345048 56.926729342683081825 -8.8564891860369971965
v 46.521216483295440014 56.550393619994537175 -9.6655161762719750129
v 45.63505397250843032 56.932219427525481592 -10.224454375511577098
v -16.677328926987755153 58.645971458119895203 6.8475170945241359277
v -16.622049924516062447 60.01816348594353201 6.5951069640785515702
v -16.824809842243844571 61.152265162061922865 7.3716713991460007804
v -17.024679507345453544 61.139474686775571399 8.7285025159063511779
v -17.274997445355328551 60.07644174599939646 9.7650604034916224094
v -17.513959990075285589 58.616097875418191165 9.9081222451488013547
v -17.502917169746456949 57.561399687247501333 9.050193407714990812
v -17.066427750881310033 57.616679750057826936 7.7318350027466582475
v -52.087845544685414723 64.56100562205051574 -29.183690403586648898
v -52.406268212072269819 65.749454866230436778 -28.659254004539644001
v -53.530968388571587013 66.246376992558907659 -28.022735687355304179
v -54.748106382709245565 65.735751820763042019 -27.733960685068623775
v -55.293559981169948969 64.569379279853151843 -27.886109973083311075
v -54.967430677941777617 63.4225249674058702 -28.421161124653444574
v -53.901206055358059643 62.896677404139637702 -28.980825882255000892
v -52.702111990662167784 63.386584495796668648 -29.342543477681150677
v -26.455684145005129437 1.5659641204587966268 9.2447727598177600328
v -27.35933372927338425 2.2394953711527021412 9.3491509115040631883
v -28.034718991577840086 2.5463484455639329163 10.18783457432876105
v -28.110678894698693853 2.3237992134095213359 11.278587513747012849
v -27.5478343383422839 1.6975394513768811144 12.006763613933086887
v -26.651494824001630946 1.011021151715751687 11.95292794651345325
v -25.937600331026242628 0.67352992165280012316 11.108327818729307523
v -25.854279076601727638 0.90674734135023293824 9.9734708964974227996
v -32.348130261856113066 -25.708763823509869439 9.0079298758712393891
v -33.486467657557334121 -25.721894726474772597 9.0792907149791250987
v -34.25293824478431759 -25.535201064895705514 9.8987875765691839547
v -34.213506027647248686 -25.252892193592185066 11.006721454068948418
v -33.367262317961611018 -25.040371202023862907 11.757144145490734388
v -32.212724825154893438 -25.027692877150286677 11.690769649894837912
v -31.442410456371916894 -25.219023880515713643 10.852902370774152985
v -31.498474493561040788 -25.499750131680212206 9.743890708763840891
v -31.356010766339913687 -6.3173584553773833861 6.5833430764249678546
v -32.394007212898763726 -5.9304079335720860655 6.6816362432327931486
v -33.097377428085749784 -5.7490562193876444397 7.5098033453543555638
v -33.093588040328079103 -5.8674839094555855112 8.6060775126980075811
v -32.359953148048809624 -6.2309906797010610191 9.371853541099069318
v -31.287739806883834603 -6.6368054677599594982 9.3252991585135447394
v -30.533725793809267657 -6.8322787444589723194 8.460465916141778564
v -30.570826190852407933 -6.6945043269268245112 7.3096988546303665046
v -31.432706527265345642 -32.666729227534254676 11.529301560881554778
v -32.601464959479208972 -32.64282983473321309 11.498925834945527669
v -33.454271369412239778 -32.419895352959109402 12.285410589455260322
v -33.482038045030805051 -32.12566270756250475 13.42256700471037334
v -32.66192904267028041 -31.949675552072790197 14.232329149133722268
v -31.512763596989909587 -31.996168845053322372 14.234483706806228653
v -30.688384240320008445 -32.216598415814999612 13.467702024281203776
v -30.644749592310422059 -32.490288459416603928 12.349762584325482351
v 5.6115808974166903056 78.448155933747017343 -16.668862361642112546
v 6.125506789518892603 77.457075860024460212 -17.216920034194444611
v 6.1047522542717338467 76.88712185520977016 -18.240385127908140817
v 5.7241148548905425031 76.790174768338104627 -19.397858960792138561
v 4.8818288863278942458 77.409494656378996069 -20.141342770948998719
v 3.9303088482940680137 78.362598576437875408 -19.68455418100502996
v 3.800384737494752585 79.139983965885662087 -18.344594478634963508
v 4.5575374886410839892 79.168933729522649401 -17.054908115629867638
v 53.693667780690738311 70.852281973207354326 -24.172913850794692792
v 53.610278431432327295 71.826221710395216746 -23.310180917358113817
v 54.473673699716215424 72.380778429576977828 -22.426254740330104909
v 55.775703564392408396 72.180355223311835289 -22.229133726859942044
v 56.652764668086973643 71.300171033832071998 -22.681939942910119612
v 56.69855847723251685 70.328379724524921812 -23.56084150980791847
v 55.822865238100121132 69.733436471184404581 -24.330996546818646209
v 54.560166799890325251 70.012821843653853193 -24.617563696069755252
v 21.611401845252697029 3.1583176684137157508 11.197052725043548094
v 21.572655705399931492 3.3547930945183166429 10.129027422232404376
v 20.905424252570455224 3.1194196806851399728 9.3015083545027419376
v 19.945085199065598403 2.5581798825332127123 9.186789683737389467
v 19.258336045203531484 1.9852922608957563888 9.9088775920572444988
v 19.287936129241796124 1.7552856726331227399 11.053195779600297755
v 20.034110461468898734 2.0306960720777516016 11.915263356555055196
v 21.001257312212135986 2.6258099328640449599 11.943837284232657225
v -9.3612621491979091104 14.392954908424259841 12.36895998859382928
v -10.226106474934921309 15.601496341322839356 12.2580640631037312
v -10.966031510111182712 16.29757052034371867 13.195109840351692654
v -10.957905929905981779 16.126724063833165701 14.510824439253639184
v -10.47693659077026318 15.287008518223716536 15.370925496960907708
v -9.89556473588963037 14.196849178175963146 15.573743791647459034
v -9.2891639746302381297 13.328679773160308386 14.815045584192390038
v -8.9739867188401127862 13.423576540121116452 13.450827037324755153
v 13.448707170526439825 57.515591941863078773 9.638905413438349612
v 13.537244085999059706 58.901617520539296891 9.4024038068058750639
v 13.690880149391960074 60.017585354555194499 10.226951404193767914
v 13.646091374021086295 59.987521682697099834 11.598755528669057568
v 13.643848392421190852 58.902003332140623115 12.659564990485796088
v 13.772183350837956084 57.40435992943780974 12.833377591769943749
v 13.856852959961438287 56.33880559305081448 11.959378889373338595
v 13.627337442186107097 56.435515596586469655 10.563771680704940437
v 28.316320487284418306 -51.467328211766734114 -4.4724157729048421572
v 27.8023185525100196 -50.750522598521399686 -4.3203172586156863844
v 27.185680549409770634 -51.026709703862245249 -4.8044190466241509796
v 26.475118955692284572 -51.303943621959696486 -4.3764411263394560336
v 26.681981023079977433 -52.116929321606534131 -4.5802481581372447295
v 26.951840774907125819 -52.599500968766250253 -3.9369431226280813263
v 27.788604062584077781 -52.584547944341395009 -4.254612884074195911
v 28.30649890630497012 -52.066644003328995893 -3.853723313341228085
v 26.231262308046808585 -7.0465549963823574942 8.9826366967220145909
v 26.029497647992222653 -7.0936318299928533548 7.9204989202739524146
v 25.178106055005429198 -7.3086861851162217008 7.2815054815290354284
v 24.124342290708121084 -7.5839943344034654871 7.4312584261690002307
v 23.473865792177559086 -7.7628260392618724239 8.3291176711364407481
v 23.654297122499464479 -7.7258349995158761558 9.4677652160471303944
v 24.57325456356486626 -7.4885637750332350038 10.12948668450393086
v 25.651402039826777468 -7.202426900838060142 9.9091576441315627477
v 38.088624137046053875 54.838588359239345493 -3.0501937386053290524
v 38.237688678397553588 55.902696218509753123 -2.6730915989758825546
v 38.872903855545857255 56.373273929812455663 -1.8407098249087159303
v 39.596691279473070324 55.954739685322991249 -1.0749566866125337405
v 39.974925655404646818 54.940688854789975437 -0.83646740410132180976
v 39.815732131935703819 53.934485141584701751 -1.2244653413884272197
v 39.215138139984368593 53.479826488861540668 -2.0096996674989093812
v 38.501589358719243705 53.840251296233290645 -2.764241626135943708
v 27.229842204625100521 55.748775969775437034 4.8805450056582273533
v 27.410390537818955181 56.882440451956107097 5.0001537881489221959
v 27.893873162686023903 57.536553209876494464 5.8221637153573251311
v 28.365675561518763459 57.287721835510112101 6.8218475019744291288
v 28.563190327921599732 56.346016760640679877 7.4066671314805070381
v 28.399966054953267758 55.248844543543775387 7.2856755134520874151
v 27.949289323815630581 54.597339449761442154 6.5061038465234846129
v 27.456027511071479097 54.802961081792048503 5.4981447935374259117
v -51.472919403439000519 74.958367539557059445 -51.692008667182321346
v -52.156958794729185058 75.285883183983628442 -51.081230414589214206
v -52.575021135707771691 75.479126837178526443 -51.878872481889402479
v -53.383117029195673808 74.865381556892472759 -51.761836097588648897
v -52.923223866937370019 74.437632896286302753 -52.508058274236020679
v -52.697308272905942772 73.625442802003576048 -52.113317105912173588
v -51.773280087044589948 73.978153953844127955 -52.276689709227298408
v -51.523833654441588692 74.05679964570042273 -51.422725702312007456
v 27.36478414825760197 -49.747195365209350371 0.82354465933877574191
v 26.642481394247504056 -48.963536667111760892 0.58314804720171331542
v 25.560778228476827678 -48.954423457887038751 0.47591236354847799017
v 24.740606825030486249 -49.661108110945967553 0.68663235742096884184
v 24.71750672663492665 -50.717757847187080245 0.92715100516604276315
v 25.403812339899765504 -51.491532413538173785 1.2058323100285390783
v 26.499466303685608182 -51.543319722788403681 1.2407469740728438445
v 27.330448986110816634 -50.799363425437938702 1.1489302887847794299
v 27.320626785086233212 -17.053389950528519137 9.8943939240666463064
v 27.006200413074079592 -17.34063719063879816 8.871102202876535614
v 26.054292358826511844 -17.495636569763224344 8.33848530407919597
v 24.974546179720547912 -17.434491716315946519 8.5892951105915589238
v 24.385347145151751391 -17.181884901287965306 9.5238926238386802936
v 24.674439472926778194 -16.880794046390739993 10.604193234165766313
v 25.687490184612080668 -16.716230941462661974 11.16250933715283189
v 26.792208208328929686 -16.791616236744012269 10.851405116371349635
v -19.182584072375693296 7.8809921153489108647 11.707680847332330387
v -19.971268301111400945 8.775670248748600244 11.750444248933170854
v -20.592306581923615738 9.2731194395993234991 12.615517255758470938
v -20.673514034211237345 9.0973350722338572893 13.749560994444893325
v -20.215655922465636252 8.3833876133255067487 14.509641276113525166
v -19.480561094485604912 7.518184509355643641 14.50207028449351121
v -18.851137649545631092 6.9796324570549916899 13.689779092314257269
v -18.715518615884533915 7.1280076340230316134 12.514892097603734555
v 51.557860959018334768 67.228521018185588787 -19.87212068183092839
v 51.535243652137118886 68.11753300397440114 -19.058106698319448924
v 52.320660614710099878 68.549334344377584216 -18.239842139988315495
v 53.447463560920297709 68.264381031236197828 -17.926867201108894534
v 54.235354786041639841 67.437833863711560412 -18.277874278188292578
v 54.247310353049009279 66.553076185443813984 -19.07754862131072926
v 53.473050045497195981 66.11487522254114424 -19.871590625986296885
v 52.357929621973589462 66.397967179307443075 -20.207996371360930965
v 26.330857222640172921 -24.643026327788234653 13.785477543011081636
v 25.934310494846513961 -25.067602291517090407 12.812369175019110656
v 24.917594520744835052 -25.159382623537826618 12.318757668122350069
v 23.854950080157760084 -24.865412494791335973 12.587652666984720184
v 23.364866015942943989 -24.346604284729949086 13.481871631054115568
v 23.755960323725329175 -23.910004662018039312 14.477674430699975616
v 24.796058316050626047 -23.817533888516898344 14.978727583670888635
v 25.867532748663339959 -24.124050354952238706 14.687547648759917251
v 39.53931620785100165 -51.160929358520533583 7.9662953563404954593
v 38.716919121373308599 -50.969961174758203981 7.651182834977196201
v 38.893264681747275802 -51.692108227357699946 7.0663452276796601126
v 38.246554732929219256 -52.290723205523164552 7.3598970712446680764
v 38.967707311257974823 -52.790671891228754475 7.6260248668555981055
v 38.836369290972371005 -52.75804247393765678 8.6039171676735826111
v 39.602949008224285876 -52.273546897746918205 8.5394775629407320139
v 39.313070932567903526 -51.451380790072960281 8.8826587328136099586
v -52.983864562511655549 67.947275340409206024 -55.474750183462326447
v -53.477092315552319235 68.639788428159420164 -55.095970616110818696
v -53.993045749556657142 68.633924038293073977 -55.743974423330534762
v -54.794694879585584602 68.33193924288400467 -55.493118002084237617
v -54.61401998751325948 67.624770703451133613 -55.986258234428852631
v -54.557122374300355716 66.959029177353116324 -55.487494391794299986
v -53.649891712634548924 66.920216652893117271 -55.735819925955397025
v -53.165018696877595517 67.19369892528467858 -55.067102224850188463
v -33.007950296217480002 -16.462435735736178799 6.7565285780569777074
v -34.110946266145646177 -16.349549871275755208 6.8533773731773104387
v -34.830790685115445626 -16.192772429763206077 7.6851025003964137383
v -34.769648740893252636 -16.079219335498486032 8.7939076502778732447
v -33.93299728293582973 -16.075914689848239902 9.5536595854645884884
v -32.790584539316625978 -16.189380424196201602 9.4889979708085370191
v -32.038728089451701919 -16.352372510024089536 8.6188868674125931335
v -32.138645564573472768 -16.465823692902585407 7.4764757124379306319
v 12.260586110651003011 13.046932119869595113 14.034764358124732553
v 12.504623234053008574 13.570735325204458022 12.976118182710058235
v 12.138987142205012404 13.499851359931216876 11.817409872471957399
v 11.200441013303953142 12.78359334196690611 11.300099005731954804
v 10.357214916493051149 11.80302518720083782 11.808379635454617329
v 10.173976376334815441 11.128301934793926264 13.066151107041282131
v 10.789890180034594991 11.263101191914230981 14.293768681608851168
v 11.648026984615578172 12.147284652836054519 14.632722687542086604
v 1.8763207761168634313 67.305446309638782054 -23.699342412445410844
v 1.2182342447025453769 68.171075764823839904 -24.104117774042922662
v 0.34679864584637920544 68.450763134617545802 -24.180571824183754615
v -0.53201247069465262829 68.208652125449276582 -24.154018390265349581
v -1.2556720291235570208 67.371733069882978384 -23.795163630275386168
v -1.0320908415997074314 66.284579604374613382 -23.050476503083999091
v 0.23248488583742818459 65.695419832531555926 -22.64092605426824889
v 1.5492735063839973009 66.234302380838499857 -22.965839753672085521
v 35.417261967712754256 -52.147443869713626441 0.23359889423791893592
v 35.06926356635711528 -51.326075620909620056 0.24249714704263561349
v 34.868228858992544872 -51.45495253319101181 -0.63995474856719425372
v 33.992590909442981228 -51.543637881493125974 -0.74054325818998256725
v 34.103311356172426372 -52.409113448616352571 -0.92699100243975407487
v 33.81065210728154824 -52.90154278206848204 -0.2645491545858100757
v 34.641343364318700537 -53.133583762601183764 -0.061484935174672600278
v 34.923121623975291072 -52.710375637543201321 0.72062183628381459854
v 51.548892776497304169 83.188040330685524282 -31.870032960521815113
v 51.630176836207468227 84.170374919042572515 -31.141916136666132786
v 52.287523159632378622 84.867531425548932589 -31.01292335224724539
v 53.204644580096690731 85.115354471598195119 -31.11239666595271558
v 54.102346528881795962 84.779392037223530565 -31.74701957269268604
v 54.32650241907094113 83.745976566598940849 -32.349577922034917776
v 53.548492933904526581 82.869551896851518791 -32.776092914311540483
v 52.415517424473812014 82.621174779184656245 -32.489880334815055107
v -3.5959942247630500844 -8.9157220355840447468 55.958956472755517098
v -3.6159253505985740063 -9.3076310235837897977 55.219326284867818799
v -4.4184527228804073573 -9.6516018016364100163 55.388749874702064346
v -5.0598424293404073993 -9.2496503577285285047 54.967666252864439969
v -5.322515670901152518 -8.8357192284087471279 55.658885291620983082
v -5.1038456870889543637 -7.9659764622889790431 55.657545387780359647
v -4.4927574264900256296 -8.1114209520040425616 56.223145097925495861
v -3.6923490832620684543 -8.0367115016314123466 55.895334939378358285
v -13.478780403352120132 89.627586979595577077 -23.632208049187909182
v -12.679823973520734981 89.89628917823564791 -24.282870402382044972
v -12.426045605253461801 89.623245589141873779 -25.282019054421958515
v -12.777194333292948514 88.907751696203902725 -26.002769024607527371
v -13.614202829928295557 88.250677004009162374 -26.026750555777070417
v -14.369015539793146274 87.939402883390954457 -25.333482445787577575
v -14.641408271447655665 88.265978737817889055 -24.369560393272969634
v -14.265161127336298819 88.919203430463483073 -23.641954037429528057
v -37.423235601924531579 -49.607549657302271839 -0.0046676795349048227912
v -38.205623023608758615 -48.864079585451221988 0.040316773829620067282
v -39.270933964573615071 -48.887480322587386183 0.27864145057064437783
v -39.960289850835550851 -49.662331715895419393 0.65307749947031812354
v -39.89222358695570847 -50.727129955207615808 0.83585373666606055387
v -39.074021929488324645 -51.530916193872684516 0.85218829663557482679
v -38.00393522237401811 -51.452403979473935181 0.57098521022623993648
v -37.314970955300793776 -50.679143401421470116 0.27159349542801169974
v 50.680401458883160615 88.789853717322145599 -31.640804142964256584
v 50.210542665265890605 88.08281559867600663 -31.524520584020166325
v 49.589988417833374967 88.544691175805098737 -31.128123916718408282
v 49.587322432138819295 88.350254766972327047 -30.235979290718344004
v 49.957836450879611334 89.09365271221466287 -30.085900388978036091
v 50.792508077928907539 89.085850885731503013 -29.814451830303024593
v 51.044819490771359938 89.407399882499987598 -30.639089093723843149
v 51.37388208355693564 88.81021105769198698 -31.128996642780091264
v -41.553881490337396087 -51.748594967501922781 -7.9636442988980311597
v -41.76999697679923429 -51.027017927634275907 -7.4362146647274709466
v -42.658378825800568279 -51.307922195874226645 -7.6404808463236575378
v -42.942879351783147968 -51.575302939601115781 -6.8631421996934713903
v -42.971499051304171246 -52.449198529623174636 -7.2661637552905347093
v -42.292609296653459694 -52.875378568462814144 -6.8025970608465993195
v -41.879803415272611744 -52.861658662318262714 -7.5910376836675483858
v -41.125402672259433245 -52.26822280314941338 -7.3764494629931922631
v -4.7955562634669339772 78.4132269191327822 -16.894605908980299347
v -3.6848322392641703615 79.028615740307458282 -17.28099507533386614
v -2.8818798158095084716 78.894549160713026481 -18.540476051024750603
v -3.0099718266321380256 78.076601384046611543 -19.8619469626767291
v -4.0208714437394892371 77.151744940550699425 -20.310950082521962656
v -4.933510303797608465 76.612439111919570678 -19.543014553136412559
v -5.3550764354120650168 76.798595932793716656 -18.383706506796759328
v -5.3652901992574904 77.436806209790802313 -17.392112348806726629
v 49.767747651555062305 86.975340417570123464 -38.016949710180938382
v 49.783048834234158164 87.232560318327628579 -37.230045297015550432
v 50.128125730910667812 87.993226992080110449 -37.538822484472568419
v 51.042589135565641811 88.035754975324124416 -37.231884223391574551
v 51.266964321538303295 87.870464968902425085 -38.024607175398379866
v 51.664767913760861973 87.044081039827730706 -38.043525793543388147
v 50.946357000201736298 86.769315030692453661 -38.5541180335928928
v 50.387710072516114224 86.231276133523564909 -38.071145997583357712
v 1.645694670480996491 61.729873620249939847 -32.573981517478685532
v 1.2549427365716796512 62.632136052610249521 -32.938593965266960595
v 0.33093131995725466599 62.991296139838468093 -33.118096793485307217
v -0.62601164595571878735 62.69716834923881521 -32.999715074378080715
v -1.1012165165972120917 61.825533788285397918 -32.663262400989609091
v -0.78550508143023556329 60.891705839102513664 -32.225949961319457771
v 0.20628445482621454721 60.457398611837234625 -32.032617004844738062
v 1.2347565557694049065 60.821473097669930041 -32.160355897417176152
v -18.153406493657072929 95.210466260110010239 -27.129093762571280024
v -17.28503440094239707 95.070962734544679051 -27.33190174529482519
v -17.551068951191794554 95.14741272232566871 -28.195014430540034311
v -17.439937788097982008 94.317894787900996789 -28.535809310278128947
v -18.344802540643627253 94.296864974121476166 -28.5858741793324036
v -18.582024943713829401 93.67162417765237592 -27.973947513011466981
v -18.9390135087815068 94.363402989195080295 -27.522746242847070164
v -18.422745800957457618 94.42379526270663348 -26.780149578750386041
v -9.2024772467151514377 84.371512318159517463 -20.879500239463887112
v -8.2795900327844087485 84.766166091721032672 -21.477560536388793366
v -7.8160492264514367378 84.515348139710624764 -22.545699662919620465
v -8.0963148533194129186 83.772853970468275975 -23.44703248749091884
v -8.9719859220392113031 82.978145111158639224 -23.614468596235877129
v -9.8507639280438272777 82.611849614858599011 -22.943624364278601746
v -10.243841463505514611 82.870665086810490152 -21.906727849309231004
v -9.9925926734828252052 83.579622925273298506 -21.070251170404567631
v 1.6831626131578310002 14.263420958553675533 22.315620144844324102
v 0.93794029100579157099 13.67695955004313646 21.371420828273816284
v -0.19886857327947238261 13.677208144259665801 21.023167772825747335
v -1.3258760037039403201 13.821200854868411767 21.311730281850913116
v -2.0099236616360411922 14.479602492268284664 22.218680930083664293
v -1.5657278299149228751 15.546063114708635666 23.107306127493796311
v -0.11236952778631639771 15.995836453209859584 23.51438069024667854
v 1.3127976809212866804 15.390282741441454917 23.159993291862846831
v 18.454987606389465782 93.453186008936128815 -24.006702645724555367
v 18.593160855590923575 92.482912893922502917 -23.925069920998328854
v 19.057336580458898112 92.689696799266826588 -24.690914402242352566
v 18.506370976384225457 92.091397304920434408 -25.229525271541863418
v 18.363424729434647986 92.960288538680686088 -25.626686843063872345
v 17.437124674683886383 92.927427324233377703 -25.445235674164806028
v 17.749206212137600858 93.729734342911996237 -24.936853542290890573
v 17.5030273855121834 93.351742793700793754 -24.106364914642902875
v 1.5043457042297860848 59.256088950875323462 -44.009144099231811254
v 1.3703515724428818601 60.032941051818738742 -43.563656608670370929
v 0.70455423480474688169 60.088022099873299453 -44.25572426288776029
v -0.019701749101256438301 60.087797842893323264 -43.618542922805417561
v -0.17509776740383475868 59.323390302532061469 -44.077685324105274844
v -0.071684875277552073669 58.764363353020108605 -43.249905005374003508
v 0.62245275903625585379 58.4681710224001705 -43.822030870675206415
v 1.2863884026950036521 58.70859781059340321 -43.195401591740619551
v -1.2572173963310384615 -4.1123152581443376263 46.595484079315802717
v -1.6665662019241591629 -5.0752189136322911622 46.11198570296765098
v -2.7190612678673424796 -5.4541714075368723513 45.804215970881863029
v -3.7933247126430091889 -5.0184111650016607342 45.841197438763927607
v -4.2606421471878528351 -4.0255021781723936414 46.215425675199966804
v -3.8440021885069350915 -3.0485796539911089731 46.695380767891329299
v -2.7913904478530495723 -2.680054748366240247 47.007969162375779604
v -1.717844112786818922 -3.1141597353216394772 46.96274671873531048
v -52.477591089612431574 81.165641830897811815 -41.58873166747316219
v -51.996522482808998689 80.423393358569043698 -41.469943509217188193
v -51.659986809186356993 80.623911012132310816 -42.382904211611524659
v -52.043068486052682431 79.964714048756874831 -42.897431540463706767
v -52.557628757138900255 80.637360706820047085 -43.305904124345801165
v -53.489085764726965522 80.436860027358633829 -42.990095759264264075
v -53.380124901926770065 81.168923542638751201 -42.475305556183599265
v -53.388854343338920216 80.853981201632123543 -41.566617332177330013
v 31.449622555038558858 -49.629784503640323123 5.4776690017478930628
v 31.134953469359579969 -48.636193785825447833 4.9016045374506367338
v 30.53118768043365705 -48.460535657650567032 3.9692606442199354078
v 29.765087327189991839 -48.987404049075841783 3.3856375894155426032
v 29.34722830319384812 -50.040878491043514487 3.3976115652470006978
v 29.484235296096940715 -50.971812578957376161 3.994119547917835078
v 30.197098143304280882 -51.299032984699316273 4.7954006165865949995
v 30.991307594043096429 -50.758490752393207401 5.5047572851817374584
v -1.9075949056634580181 -5.7741602711135726622 50.943208098167659159
v -2.2515728190935937469 -6.6457120195754066927 50.421744925595312736
v -3.2376748889469797454 -6.9942244371779214163 50.131552431321317442
v -4.2413435161533241669 -6.5804830033533914246 50.120028494415599596
v -4.6694634320855463727 -5.6748247358003967022 50.527334656201645657
v -4.2938008294151686073 -4.7673503596544453131 50.981439686388696941
v -3.3274577043162736345 -4.4718556909784457076 51.331030911571339459
v -2.3270774124713122788 -4.8432370882322324235 51.273347548263167539
v 11.163960782837715868 84.748785637855519326 -20.693292034823411285
v 11.815414471501417992 83.968869148583067386 -21.010824794859583875
v 11.959111571548790565 83.426618322767637892 -21.901668438355816448
v 11.534228394486685687 83.342005388815209699 -22.862993573733863428
v 10.741426956510535362 83.839047775794711015 -23.389053971483150463
v 9.9802233789106384876 84.608654239731322377 -23.104871429246372827
v 9.8201599565304302786 85.216117086175486861 -22.16441386842218364
v 10.291994395578351273 85.276427423282811446 -21.14469074808542004
v -0.054701022372247498637 0.083068630836715492971 36.786835956441400697
v -0.49573923433549449413 -0.77494740131224981727 36.152865163948604277
v -1.5426228377882580389 -1.0962130345083798133 35.822497311480177018
v -2.6101899970181916544 -0.71193870517349411298 35.973100212294070843
v -3.0992448505319578622 0.17766416681577296144 36.531100330964527245
v -2.6920323093717590801 1.0717684864969938552 37.186173377515217453
v -1.6076796913732525063 1.4185633590267126003 37.537358395339033734
v -0.50486243985590562033 1.0018345346239332372 37.368048157584304647
v 28.31064829661269755 -47.847751345718869231 10.774842143725516408
v 27.294770040802674771 -46.954647388295128962 10.639519955990188294
v 25.91365995431194591 -47.059007247071271252 10.445528362228380104
v 25.075949434911493086 -48.137354052643296143 10.280350454787091863
v 25.289279773557414188 -49.467671751563152327 10.221781434023231583
v 26.34098805278913602 -50.248282233961603538 10.296567629229516072
v 27.540579202583447938 -50.067144346210156414 10.568587913222236452
v 28.333836311514847495 -49.172759234181285137 10.748790633038687758
v -49.067000384737923468 -51.457084706478440239 -4.6538371340312325586
v -48.856833694757533237 -50.688108838403032053 -4.1882759558163762392
v -49.825689740180706622 -50.59137088225947565 -4.2946809557001248692
v -49.994326828959721354 -50.653674239205848551 -3.2940836763026095646
v -50.405510271985889403 -51.407703837758475629 -3.5947404717148101483
v -49.821093694683206365 -52.06995477884122181 -3.0716671165401558952
v -49.623761145708535025 -52.303006778129692123 -3.9545946339807311887
v -48.747417182194340057 -52.115957652181336357 -3.9109913825341831028
v -55.570691820804483996 73.374752147064114638 -37.726252175908037145
v -54.470835618015257751 72.975008869793242638 -38.08807952563452659
v -54.002023692456724291 72.635292644392791317 -39.146686842184216459
v -54.417344592230570299 72.558991757364879049 -40.31750710002852145
v -55.57570560987714714 72.874331628745110834 -40.951382364829377991
v -56.755841687588905131 73.075654287709923551 -40.574702373904479202
v -57.167291082250599743 73.352184556978443197 -39.325729460703215068
v -56.687739987465022296 73.469622821494112941 -38.201173534583972469
v 58.376697291491197461 74.815508014065585485 -40.945121099555024102
v 58.367761968337006806 75.523812531303107676 -40.388341930077928055
v 59.122571439805696514 75.81503077990919337 -40.78652136983254195
v 59.801373085222493842 75.719484525897954086 -40.11724690096436774
v 60.111144272852541803 75.070454602735679828 -40.613976834242691893
v 60.00146069035375973 74.274160655269852782 -40.096676927788237776
v 59.380815440233369884 74.051497819271531853 -40.771557225015918391
v 58.583157145827435386 74.041575834220921593 -40.382149955043416867
v -41.875448774381190731 -49.341624551881970717 3.5751182953495330707
v -42.186889038206835778 -48.091061577397844928 3.6569427944468753111
v -43.000736658206982099 -47.575244460283499848 4.2533945268466162304
v -43.830108004902065488 -47.965207519837839811 4.9269921742999933656
v -44.10712789275886081 -49.198163151360773782 5.2857147342203800733
v -43.571276260398200009 -50.219189315205653656 5.396653669594871694
v -42.681656933964028156 -50.666992589103259093 4.9446241719501635714
v -41.985186050888486875 -50.324712288182254838 4.1634071122052800362
v -0.63546125994081803512 -2.6060587429126425008 42.025386643423161104
v -1.0680444438435860999 -3.553492065361329999 41.499330853827899546
v -2.1244302189730208674 -3.916391161638038465 41.191448238815631555
v -3.2040983625215484487 -3.4976978159652087896 41.27112078757903646
v -3.6869267093122610746 -2.5221704918662393169 41.701150805221466555
v -3.2727065167802953383 -1.5539132390097116776 42.232930834611792648
v -2.1918507538740987783 -1.1747989072464322113 42.552008263459171644
v -1.0950944324259959117 -1.6166948003850321047 42.462889174512326917
v 55.590170023781276143 79.020935683846644793 -29.906240286001732898
v 54.320831495460787153 78.604011172892683135 -29.746661690559008662
v 53.444255112262041507 78.439886487617926036 -28.749297217131054794
v 53.420175043854534636 78.668188754349174019 -27.387989603986522269
v 54.329879255233279878 79.186199303108892877 -26.450247207646437886
v 55.704465703410974697 79.583472366706089929 -26.573692461600142423
v 56.593995324068679054 79.742143273021312666 -27.676876212538292776
v 56.540044600593972746 79.587697399204103021 -29.02740846800270802
v 27.395580314284465828 -48.823718767384235662 3.8799686285762571281
v 26.611717912442031775 -47.890639205069092554 3.6940257996050016587
v 25.427625281606584196 -47.774526076952895437 3.8392893650179544807
v 24.547379262436788139 -48.495086751710736905 4.2623832293887167211
v 24.435065664272968888 -49.718710744748541686 4.5332172386323899005
v 25.252158010644684794 -50.681726521260401341 4.64561849355044032
v 26.434094242307779155 -50.774123538670863809 4.4236553853314211082
v 27.315695269583720517 -49.982592112206958745 4.16302057692682137
v 31.896099968054574703 -48.849269282715304996 13.056159903819363421
v 31.385115899908473835 -48.993837498594238866 12.074714246453890354
v 30.944118496341349811 -49.878859723257889414 11.531266337021904178
v 30.76306702509245028 -50.987588311692583432 11.75296033026989484
v 30.977262759458827901 -51.638999675330566674 12.624991865449739947
v 31.311910646176443151 -51.504674391777029996 13.704570989320060903
v 31.870471822375268545 -50.633026482895814979 14.279553014595784077
v 32.04577041737065457 -49.476658087896218774 14.033249731983595154
v -52.117174745844380368 -51.010941281049234419 4.6494318352038108699
v -51.709526069330742359 -50.194952145822362866 4.7825208330270578827
v -52.510973182277218996 -49.938086990000918775 5.1281479856722747002
v -52.222610031694877364 -49.7757947929758231 6.0764044627362228113
v -52.733881142066003633 -50.487279999876136571 6.2030471119255867762
v -52.074747257850745541 -51.124727091701906545 6.5685143558556067234
v -52.342953775339452704 -51.588971488867741755 5.7756927218618425712
v -51.592265142017602386 -51.60615589654118196 5.3096350130065141926
v -36.109966241471333603 -48.414684181961007425 5.1881648041808201555
v -37.066684930987008784 -47.552330722878558333 5.0156252037349124961
v -38.288862810516853585 -47.628553726212679464 5.0159270456680147277
v -39.119393543301541172 -48.477768833894629097 5.0299243604578318667
v -39.131943499426625976 -49.829258030215150654 5.2293338057368448091
v -38.262411512343398101 -50.746935405496984117 5.6060019489944838966
v -36.934926758223475929 -50.63559317068683896 5.7753422167871288906
v -36.050302451164732531 -49.615591261706370574 5.6068708565115414899
v -54.674626682936406041 70.92975344227279777 -42.565218727924339248
v -55.390506541777540406 71.713212615592624388 -42.567334431112257676
v -56.587337439467354727 71.899569717448471806 -43.001802458541078522
v -57.493617111504825345 71.140262658942049256 -43.438502305562955996
v -57.058136525419143936 70.027013016905058862 -44.089572019396790381
v -56.115419118628373951 69.217463513123092866 -44.089612939594246654
v -55.11470247031602554 69.280772739655773762 -43.538445860922955433
v -54.558991346472978989 69.970341866265869157 -42.92946005881159266
v 56.696232444090043145 74.232159836196061065 -33.073946939916197607
v 56.991135719125118442 75.354035621744102968 -33.033332160246438036
v 57.983299067831076457 75.926212970943723235 -32.832417026635347668
v 59.06228046636357476 75.657082611903490488 -32.499919069474252353
v 59.597981573399728461 74.660970007938288973 -32.295551662709343077
v 59.323230710858894099 73.508856516356829047 -32.183479388189979886
v 58.360836000518574451 72.84885077009205645 -32.517870152967432773
v 57.191716803320694851 73.162009773064710316 -32.79453784184918419
v 0.58618455109442224593 5.9137187771049823937 30.00706773580694886
v 0.094273707440263421198 5.166115947350094828 29.253419451757761038
v -0.95492875296356161119 4.923007488748635474 28.914375153059975077
v -2.0123794813322475328 5.2548944296370256879 29.133280363120160672
v -2.5172054660344613808 6.0451476882302985771 29.831227833473835886
v -2.1019675861489037771 6.857463346453833708 30.615659002959908719
v -0.97523439332380212896 7.1674309038608070566 31.001875533919136529
v 0.15546672400013517024 6.7613733285271733209 30.740588034892677882
v -54.962306984642786745 67.818498742436020166 -49.063793072407371199
v -55.647696869190639291 68.675929924499328649 -49.130411789184947224
v -56.666469250711820393 68.770763443716177221 -49.351630695721539155
v -57.468023086266391886 68.147468970428789703 -49.488324730318446143
v -57.607476447351004367 67.162019548888522991 -49.605123375334656544
v -57.064604427531733677 66.271847245955825656 -49.510688657004017443
v -56.01737934055013568 66.070847111735588442 -49.352932282262365504
v -55.086548267464628736 66.658801012457843171 -49.105937243634635081
v 52.911964464224141125 83.947758409647335043 -29.550629948275471293
v 51.986593350959196869 83.625575234352837128 -29.505120208059850029
v 51.154283395968519699 83.536812947225783432 -28.839496699491384391
v 51.145029809531962428 83.733263321952591696 -27.687296951912642839
v 51.884449675060359652 84.253185832357758045 -27.02178570700745297
v 52.937705311395831131 84.726048623367219648 -27.09621561393453959
v 53.561432831870313009 84.99673868703325752 -28.058300778640653306
v 53.513567937084594917 84.608039798064879733 -28.990729935581221355
v -57.988028040827039433 58.808348485385941729 -51.780185205963583428
v -57.267318678195273662 59.236801303341835023 -51.37545986166665557
v -57.192972296192820636 59.656846457647993986 -52.305303332280132622
v -57.427216010982867544 60.538288503292420728 -52.109148079062137526
v -58.205584169460841792 60.348373921050310287 -52.664388663080828223
v -58.920407348958207194 60.418957377315706481 -51.949840237999055148
v -58.976609216236425937 59.525220697719518625 -52.138522368351274849
v -58.723717011609515737 59.151608090093930059 -51.232429898630059029
v -55.512204888915292145 67.96531096806981509 -43.811971626363984456
v -56.501569769364600404 68.910728259136234897 -43.761561760940260513
v -57.597975911158719953 68.771887969194352763 -43.588886270440553972
v -58.308371660388715441 68.044660265973874402 -43.569513457512179855
v -58.436443314168627694 67.021585532845307398 -43.687250080760129833
v -57.87154087633093269 66.171146651216801615 -43.899140755293451832
v -56.649627382455591373 65.909228860766091884 -43.978591015256583319
v -55.418101046530047427 66.618639242478579376 -43.784454920615687001
v -57.812991831130752018 63.008871990415990183 -41.779754026463152172
v -56.6775435879515328 63.469712638997791032 -42.221728321759911751
v -56.361862699170970359 64.398512968453530902 -43.073331468034169234
v -56.949641715498920291 65.301436772941514164 -43.829938891065076234
v -58.265257567531953953 65.527253023517431529 -43.93984234815943779
v -59.37387009439045471 65.277680656579278207 -43.350099285350239597
v -59.660135628745081249 64.368150158681714856 -42.47696235739464754
v -59.016453721631584983 63.464737796416130777 -41.770415131874599979
v -43.773341186096509148 -49.399320507142618908 7.6902722600502384509
v -43.861174759348642738 -48.07354511860070545 7.7212319932008934842
v -43.976195201133165824 -47.342996838509577628 8.5779890289300322337
v -44.067753926154757949 -47.310712096915999325 9.7266268643260609394
v -44.043445161819008149 -48.175548061517318388 10.586506476525128662
v -43.708450680150804146 -49.291765030910177359 10.645709832943575535
v -43.565125861192406376 -50.230818145896442672 9.821395647331424783
v -43.543680799893870415 -50.298781740979677579 8.5480852630957748772
v 27.764171773862045711 -52.083359488071451437 -5.5201756769544925163
v -51.713305436389561009 75.279577751133786023 -53.33118864479074972
v 40.411099976808706913 -52.228219218658679779 7.0722671148440703348
v -53.385828704524541877 67.868453251643956037 -56.836678784854015589
v 35.509563324300145837 -52.708879841047625803 -1.1560045506219953637
v -4.6682626479653803742 -9.4459700512603443912 56.727079972677131536
v 49.95864592191238529 89.832158409584209835 -31.32016541998306991
v -42.810034287265743558 -52.338706168905154925 -8.8397830756785964468
v 50.183222917504991756 87.940722584998695766 -39.098212441371629211
v -18.996329852214781653 95.688482876329942428 -28.342999944557316638
v 19.36975938729419866 94.331240958870267832 -25.177591468165744004
v 0.71515138087012475321 58.950713079433114672 -45.518071307921111668
v -52.080703650635307156 82.090432406533338394 -42.896932357211397857
v -50.640528615503548338 -51.819249252023318775 -5.2420274281432499563
v 59.432350007328864194 74.99849918796829229 -42.05842153688682572
v -53.676639437348057982 -51.093683828568018157 4.923043826521977806
v -58.094160180522109727 58.894373208314497958 -53.493659798956812779
f 12 3 20 1
f 16 4 19 1
f 17 5 22 2
f 18 6 21 2
f 19 7 12 1
f 20 8 16 1
f 21 9 17 2
f 22 10 18 2
f 34 25 42 23
f 38 26 41 23
f 39 27 44 24
f 40 28 43 24
f 41 29 34 23
f 42 30 38 23
f 43 31 39 24
f 44 32 40 24
f 56 47 64 45
f 58 48 66 46
f 61 49 63 45
f 62 50 65 46
f 63 51 56 45
f 64 52 61 45
f 65 53 58 46
f 66 54 62 46
f 82 70 83 68
f 78 70 82 67
f 83 71 84 68
f 84 72 85 68
f 85 73 82 68
f 82 73 81 67
f 86 74 87 69
f 87 74 78 67
f 87 75 88 69
f 81 75 87 67
f 88 76 89 69
f 89 77 86 69
f 100 92 111 91
f 104 93 109 90
f 106 94 108 90
f 107 95 110 91
f 108 96 104 90
f 109 97 106 90
f 110 98 100 91
f 111 99 107 91
f 147 117 133 116
f 129 117 147 115
f 133 118 148 116
f 137 119 131 112
f 135 120 137 112
f 146 121 129 115
f 141 121 146 114
f 145 122 141 114
f 144 123 143 113
f 140 124 144 113
f 142 125 145 114
f 143 125 142 113
f 146 126 142 114
f 139 126 146 115
f 142 126 140 113
f 147 127 139 115
f 130 127 147 116
f 131 127 130 112
f 148 128 130 116
f 130 128 135 112
f 164 152 165 150
f 160 152 164 149
f 165 153 166 150
f 166 154 167 150
f 167 155 164 150
f 164 155 163 149
f 168 156 169 151
f 169 156 160 149
f 169 157 170 151
f 163 157 169 149
f 170 158 171 151
f 171 159 168 151
f 187 175 188 173
f 184 175 187 172
f 188 176 189 173
f 189 177 190 173
f 190 178 187 173
f 187 178 186 172
f 191 179 192 174
f 192 179 184 172
f 192 180 193 174
f 186 180 192 172
f 193 181 194 174
f 194 182 191 174
f 210 198 211 196
f 211 198 209 195
f 211 199 212 196
f 208 199 211 195
f 212 200 213 196
f 213 201 210 196
f 214 202 215 197
f 209 202 214 195
f 215 203 216 197
f 216 204 217 197
f 217 205 214 197
f 214 205 208 195
f 274 281 225 218
f 275 274 218 219
f 276 275 219 220
f 277 276 220 221
f 278 277 221 222
f 279 278 222 223
f 280 279 223 224
f 281 280 224 225
f 337 330 218 225
f 336 337 225 224
f 335 336 224 223
f 334 335 223 222
f 333 334 222 221
f 332 333 221 220
f 331 332 220 219
f 330 331 219 218
f 29 37 226 233
f 34 29 233 232
f 25 34 232 231
f 35 25 231 230
f 27 35 230 229
f 44 27 229 228
f 32 44 228 227
f 37 32 227 226
f 15 10 233 226
f 7 15 226 227
f 12 7 227 228
f 3 12 228 229
f 13 3 229 230
f 5 13 230 231
f 22 5 231 232
f 10 22 232 233
f 321 314 234 241
f 320 321 241 240
f 319 320 240 239
f 318 319 239 238
f 317 318 238 237
f 316 317 237 236
f 315 316 236 235
f 314 315 235 234
f 474 481 241 234
f 475 474 234 235
f 476 475 235 236
f 477 476 236 237
f 478 477 237 238
f 479 478 238 239
f 480 479 239 240
f 481 480 240 241
f 281 274 242 249
f 280 281 249 248
f 279 280 248 247
f 278 279 247 246
f 277 278 246 245
f 276 277 245 244
f 275 276 244 243
f 274 275 243 242
f 322 329 249 242
f 323 322 242 243
f 324 323 243 244
f 325 324 244 245
f 326 325 245 246
f 327 326 246 247
f 328 327 247 248
f 329 328 248 249
f 72 84 250 257
f 80 72 257 256
f 76 80 256 255
f 89 76 255 254
f 77 89 254 253
f 79 77 253 252
f 71 79 252 251
f 84 71 251 250
f 306 313 257 250
f 307 306 250 251
f 308 307 251 252
f 309 308 252 253
f 310 309 253 254
f 311 310 254 255
f 312 311 255 256
f 313 312 256 257
f 313 306 258 265
f 312 313 265 264
f 311 312 264 263
f 310 311 263 262
f 309 310 262 261
f 308 309 261 260
f 307 308 260 259
f 306 307 259 258
f 282 289 265 258
f 283 282 258 259
f 284 283 259 260
f 285 284 260 261
f 286 285 261 262
f 287 286 262 263
f 288 287 263 264
f 289 288 264 265
f 9 21 266 273
f 11 9 273 272
f 8 11 272 271
f 16 8 271 270
f 4 16 270 269
f 14 4 269 268
f 6 14 268 267
f 21 6 267 266
f 111 92 273 266
f 99 111 266 267
f 102 99 267 268
f 96 102 268 269
f 104 96 269 270
f 93 104 270 271
f 101 93 271 272
f 92 101 272 273
f 482 489 289 282
f 483 482 282 283
f 484 483 283 284
f 485 484 284 285
f 486 485 285 286
f 487 486 286 287
f 488 487 287 288
f 489 488 288 289
f 305 298 290 297
f 304 305 297 296
f 303 304 296 295
f 302 303 295 294
f 301 302 294 293
f 300 301 293 292
f 299 300 292 291
f 298 299 291 290
f 362 369 297 290
f 363 362 290 291
f 364 363 291 292
f 365 364 292 293
f 366 365 293 294
f 367 366 294 295
f 368 367 295 296
f 369 368 296 297
f 48 57 298 305
f 66 48 305 304
f 54 66 304 303
f 59 54 303 302
f 51 59 302 301
f 56 51 301 300
f 47 56 300 299
f 57 47 299 298
f 433 426 314 321
f 432 433 321 320
f 431 432 320 319
f 430 431 319 318
f 429 430 318 317
f 428 429 317 316
f 427 428 316 315
f 426 427 315 314
f 20 3 329 322
f 8 20 322 323
f 11 8 323 324
f 9 11 324 325
f 17 9 325 326
f 5 17 326 327
f 13 5 327 328
f 3 13 328 329
f 124 140 330 337
f 136 124 337 336
f 119 136 336 335
f 131 119 335 334
f 127 131 334 333
f 139 127 333 332
f 126 139 332 331
f 140 126 331 330
f 466 473 345 338
f 467 466 338 339
f 468 467 339 340
f 469 468 340 341
f 470 469 341 342
f 471 470 342 343
f 472 471 343 344
f 473 472 344 345
f 361 354 338 345
f 360 361 345 344
f 359 360 344 343
f 358 359 343 342
f 357 358 342 341
f 356 357 341 340
f 355 356 340 339
f 354 355 339 338
f 506 513 353 346
f 507 506 346 347
f 508 507 347 348
f 509 508 348 349
f 510 509 349 350
f 511 510 350 351
f 512 511 351 352
f 513 512 352 353
f 369 362 346 353
f 368 369 353 352
f 367 368 352 351
f 366 367 351 350
f 365 366 350 349
f 364 365 349 348
f 363 364 348 347
f 362 363 347 346
f 513 506 354 361
f 512 513 361 360
f 511 512 360 359
f 510 511 359 358
f 509 510 358 357
f 508 509 357 356
f 507 508 356 355
f 506 507 355 354
f 99 102 370 377
f 107 99 377 376
f 95 107 376 375
f 105 95 375 374
f 94 105 374 373
f 108 94 373 372
f 96 108 372 371
f 102 96 371 370
f 682 689 377 370
f 683 682 370 371
f 684 683 371 372
f 685 684 372 373
f 686 685 373 374
f 687 686 374 375
f 688 687 375 376
f 689 688 376 377
f 171 158 385 378
f 159 171 378 379
f 161 159 379 380
f 153 161 380 381
f 166 153 381 382
f 154 166 382 383
f 162 154 383 384
f 158 162 384 385
f 481 474 378 385
f 480 481 385 384
f 479 480 384 383
f 478 479 383 382
f 477 478 382 381
f 476 477 381 380
f 475 476 380 379
f 474 475 379 378
f 425 418 386 393
f 424 425 393 392
f 423 424 392 391
f 422 423 391 390
f 421 422 390 389
f 420 421 389 388
f 419 420 388 387
f 418 419 387 386
f 514 521 393 386
f 515 514 386 387
f 516 515 387 388
f 517 516 388 389
f 518 517 389 390
f 519 518 390 391
f 520 519 391 392
f 521 520 392 393
f 473 466 394 401
f 472 473 401 400
f 471 472 400 399
f 470 471 399 398
f 469 470 398 397
f 468 469 397 396
f 467 468 396 395
f 466 467 395 394
f 39 31 401 394
f 27 39 394 395
f 35 27 395 396
f 25 35 396 397
f 42 25 397 398
f 30 42 398 399
f 33 30 399 400
f 31 33 400 401
f 434 441 409 402
f 435 434 402 403
f 436 435 403 404
f 437 436 404 405
f 438 437 405 406
f 439 438 406 407
f 440 439 407 408
f 441 440 408 409
f 7 19 402 409
f 15 7 409 408
f 10 15 408 407
f 18 10 407 406
f 6 18 406 405
f 14 6 405 404
f 4 14 404 403
f 19 4 403 402
f 450 457 417 410
f 451 450 410 411
f 452 451 411 412
f 453 452 412 413
f 454 453 413 414
f 455 454 414 415
f 456 455 415 416
f 457 456 416 417
f 465 458 418 425
f 464 465 425 424
f 463 464 424 423
f 462 463 423 422
f 461 462 422 421
f 460 461 421 420
f 459 460 420 419
f 458 459 419 418
f 441 434 426 433
f 440 441 433 432
f 439 440 432 431
f 438 439 431 430
f 437 438 430 429
f 436 437 429 428
f 435 436 428 427
f 434 435 427 426
f 786 793 449 442
f 787 786 442 443
f 788 787 443 444
f 789 788 444 445
f 790 789 445 446
f 791 790 446 447
f 792 791 447 448
f 793 792 448 449
f 754 761 457 450
f 755 754 450 451
f 756 755 451 452
f 757 756 452 453
f 758 757 453 454
f 759 758 454 455
f 760 759 455 456
f 761 760 456 457
f 489 482 458 465
f 488 489 465 464
f 487 488 464 463
f 486 487 463 462
f 485 486 462 461
f 484 485 461 460
f 483 484 460 459
f 482 483 459 458
f 762 769 497 490
f 763 762 490 491
f 764 763 491 492
f 765 764 492 493
f 766 765 493 494
f 767 766 494 495
f 768 767 495 496
f 769 768 496 497
f 810 817 505 498
f 811 810 498 499
f 812 811 499 500
f 813 812 500 501
f 814 813 501 502
f 815 814 502 503
f 816 815 503 504
f 817 816 504 505
f 41 26 521 514
f 29 41 514 515
f 37 29 515 516
f 32 37 516 517
f 40 32 517 518
f 28 40 518 519
f 36 28 519 520
f 26 36 520 521
f 105 94 529 522
f 95 105 522 523
f 110 95 523 524
f 98 110 524 525
f 103 98 525 526
f 97 103 526 527
f 106 97 527 528
f 94 106 528 529
f 609 602 522 529
f 608 609 529 528
f 607 608 528 527
f 606 607 527 526
f 605 606 526 525
f 604 605 525 524
f 603 604 524 523
f 602 603 523 522
f 666 673 537 530
f 667 666 530 531
f 668 667 531 532
f 669 668 532 533
f 670 669 533 534
f 671 670 534 535
f 672 671 535 536
f 673 672 536 537
f 176 188 538 545
f 185 176 545 544
f 182 185 544 543
f 191 182 543 542
f 179 191 542 541
f 184 179 541 540
f 175 184 540 539
f 188 175 539 538
f 594 601 545 538
f 595 594 538 539
f 596 595 539 540
f 597 596 540 541
f 598 597 541 542
f 599 598 542 543
f 600 599 543 544
f 601 600 544 545
f 674 681 553 546
f 675 674 546 547
f 676 675 547 548
f 677 676 548 549
f 678 677 549 550
f 679 678 550 551
f 680 679 551 552
f 681 680 552 553
f 610 617 561 554
f 611 610 554 555
f 612 611 555 556
f 613 612 556 557
f 614 613 557 558
f 615 614 558 559
f 616 615 559 560
f 617 616 560 561
f 625 618 554 561
f 624 625 561 560
f 623 624 560 559
f 622 623 559 558
f 621 622 558 557
f 620 621 557 556
f 619 620 556 555
f 618 619 555 554
f 585 578 562 569
f 584 585 569 568
f 583 584 568 567
f 582 583 567 566
f 581 582 566 565
f 580 581 565 564
f 579 580 564 563
f 578 579 563 562
f 778 785 569 562
f 779 778 562 563
f 780 779 563 564
f 781 780 564 565
f 782 781 565 566
f 783 782 566 567
f 784 783 567 568
f 785 784 568 569
f 825 818 570 577
f 824 825 577 576
f 823 824 576 575
f 822 823 575 574
f 821 822 574 573
f 820 821 573 572
f 819 820 572 571
f 818 819 571 570
f 93 101 586 593
f 109 93 593 592
f 97 109 592 591
f 103 97 591 590
f 98 103 590 589
f 100 98 589 588
f 92 100 588 587
f 101 92 587 586
f 618 625 593 586
f 619 618 586 587
f 620 619 587 588
f 621 620 588 589
f 622 621 589 590
f 623 622 590 591
f 624 623 591 592
f 625 624 592 593
f 649 642 602 609
f 648 649 609 608
f 647 648 608 607
f 646 647 607 606
f 645 646 606 605
f 644 645 605 604
f 643 644 604 603
f 642 643 603 602
f 36 26 633 626
f 28 36 626 627
f 43 28 627 628
f 31 43 628 629
f 33 31 629 630
f 30 33 630 631
f 38 30 631 632
f 26 38 632 633
f 809 802 626 633
f 808 809 633 632
f 807 808 632 631
f 806 807 631 630
f 805 806 630 629
f 804 805 629 628
f 803 804 628 627
f 802 803 627 626
f 689 682 634 641
f 688 689 641 640
f 687 688 640 639
f 686 687 639 638
f 685 686 638 637
f 684 685 637 636
f 683 684 636 635
f 682 683 635 634
f 738 745 657 650
f 739 738 650 651
f 740 739 651 652
f 741 740 652 653
f 742 741 653 654
f 743 742 654 655
f 744 743 655 656
f 745 744 656 657
f 681 674 650 657
f 680 681 657 656
f 679 680 656 655
f 678 679 655 654
f 677 678 654 653
f 676 677 653 652
f 675 676 652 651
f 674 675 651 650
f 721 714 658 665
f 720 721 665 664
f 719 720 664 663
f 718 719 663 662
f 717 718 662 661
f 716 717 661 660
f 715 716 660 659
f 714 715 659 658
f 207 203 673 666
f 201 207 666 667
f 210 201 667 668
f 198 210 668 669
f 209 198 669 670
f 202 209 670 671
f 215 202 671 672
f 203 215 672 673
f 802 809 697 690
f 803 802 690 691
f 804 803 691 692
f 805 804 692 693
f 806 805 693 694
f 807 806 694 695
f 808 807 695 696
f 809 808 696 697
f 745 738 690 697
f 744 745 697 696
f 743 744 696 695
f 742 743 695 694
f 741 742 694 693
f 740 741 693 692
f 739 740 692 691
f 738 739 691 690
f 203 207 698 705
f 216 203 705 704
f 204 216 704 703
f 206 204 703 702
f 200 206 702 701
f 213 200 701 700
f 201 213 700 699
f 207 201 699 698
f 83 70 705 698
f 71 83 698 699
f 79 71 699 700
f 77 79 700 701
f 86 77 701 702
f 74 86 702 703
f 78 74 703 704
f 70 78 704 705
f 730 737 713 706
f 731 730 706 707
f 732 731 707 708
f 733 732 708 709
f 734 733 709 710
f 735 734 710 711
f 736 735 711 712
f 737 736 712 713
f 117 129 714 721
f 133 117 721 720
f 118 133 720 719
f 132 118 719 718
f 122 132 718 717
f 141 122 717 716
f 121 141 716 715
f 129 121 715 714
f 801 794 722 729
f 800 801 729 728
f 799 800 728 727
f 798 799 727 726
f 797 798 726 725
f 796 797 725 724
f 795 796 724 723
f 794 795 723 722
f 55 53 737 730
f 52 55 730 731
f 61 52 731 732
f 49 61 732 733
f 60 49 733 734
f 50 60 734 735
f 65 50 735 736
f 53 65 736 737
f 185 182 753 746
f 176 185 746 747
f 189 176 747 748
f 177 189 748 749
f 183 177 749 750
f 181 183 750 751
f 194 181 751 752
f 182 194 752 753
f 152 160 746 753
f 165 152 753 752
f 153 165 752 751
f 161 153 751 750
f 159 161 750 749
f 168 159 749 748
f 156 168 748 747
f 160 156 747 746
f 208 205 761 754
f 199 208 754 755
f 212 199 755 756
f 200 212 756 757
f 206 200 757 758
f 204 206 758 759
f 217 204 759 760
f 205 217 760 761
f 85 72 769 762
f 73 85 762 763
f 81 73 763 764
f 75 81 764 765
f 88 75 765 766
f 76 88 766 767
f 80 76 767 768
f 72 80 768 769
f 850 857 777 770
f 851 850 770 771
f 852 851 771 772
f 853 852 772 773
f 854 853 773 774
f 855 854 774 775
f 856 855 775 776
f 857 856 776 777
f 57 48 785 778
f 47 57 778 779
f 64 47 779 780
f 52 64 780 781
f 55 52 781 782
f 53 55 782 783
f 58 53 783 784
f 48 58 784 785
f 145 125 793 786
f 122 145 786 787
f 132 122 787 788
f 118 132 788 789
f 134 118 789 790
f 123 134 790 791
f 143 123 791 792
f 125 143 792 793
f 158 170 794 801
f 162 158 801 800
f 154 162 800 799
f 167 154 799 798
f 155 167 798 797
f 163 155 797 796
f 157 163 796 795
f 170 157 795 794
f 834 841 817 810
f 835 834 810 811
f 836 835 811 812
f 837 836 812 813
f 838 837 813 814
f 839 838 814 815
f 840 839 815 816
f 841 840 816 817
f 180 186 818 825
f 193 180 825 824
f 181 193 824 823
f 183 181 823 822
f 177 183 822 821
f 190 177 821 820
f 178 190 820 819
f 186 178 819 818
f 842 849 833 826
f 843 842 826 827
f 844 843 827 828
f 845 844 828 829
f 846 845 829 830
f 847 846 830 831
f 848 847 831 832
f 849 848 832 833
f 134 123 841 834
f 118 134 834 835
f 148 118 835 836
f 128 148 836 837
f 135 128 837 838
f 120 135 838 839
f 138 120 839 840
f 123 138 840 841
f 136 119 849 842
f 124 136 842 843
f 144 124 843 844
f 123 144 844 845
f 138 123 845 846
f 120 138 846 847
f 137 120 847 848
f 119 137 848 849
f 60 50 857 850
f 49 60 850 851
f 63 49 851 852
f 51 63 852 853
f 59 51 853 854
f 54 59 854 855
f 62 54 855 856
f 50 62 856 857
f 416 858 410 417
f 414 858 416 415
f 412 858 414 413
f 410 858 412 411
f 448 859 442 449
f 446 859 448 447
f 444 859 446 445
f 442 859 444 443
f 496 860 490 497
f 494 860 496 495
f 492 860 494 493
f 490 860 492 491
f 504 861 498 505
f 502 861 504 503
f 500 861 502 501
f 498 861 500 499
f 536 862 530 537
f 534 862 536 535
f 532 862 534 533
f 530 862 532 531
f 552 863 546 553
f 550 863 552 551
f 548 863 550 549
f 546 863 548 547
f 570 864 576 577
f 572 864 570 571
f 574 864 572 573
f 576 864 574 575
f 584 865 578 585
f 582 865 584 583
f 580 865 582 581
f 578 865 580 579
f 594 866 600 601
f 596 866 594 595
f 598 866 596 597
f 600 866 598 599
f 610 867 616 617
f 612 867 610 611
f 614 867 612 613
f 616 867 614 615
f 634 868 640 641
f 636 868 634 635
f 638 868 636 637
f 640 868 638 639
f 648 869 642 649
f 646 869 648 647
f 644 869 646 645
f 642 869 644 643
f 658 870 664 665
f 660 870 658 659
f 662 870 660 661
f 664 870 662 663
f 712 871 706 713
f 710 871 712 711
f 708 871 710 709
f 706 871 708 707
f 722 872 728 729
f 724 872 722 723
f 726 872 724 725
f 728 872 726 727
f 776 873 770 777
f 774 873 776 775
f 772 873 774 773
f 770 873 772 771
f 832 874 826 833
f 830 874 832 831
f 828 874 830 829
f 826 874 828 827
