solid STL generated by MeshLab
  facet normal -2.497072e-01  3.351389e-01  9.084758e-01
    outer loop
      vertex   2.922699e+01  1.870715e+01  4.453949e+01
      vertex   4.615999e+01  1.662592e+01  4.996154e+01
      vertex   3.651894e+01  2.635740e+01  4.372159e+01
    endloop
  endfacet
  facet normal  5.866337e-01 -6.802353e-01 -4.394778e-01
    outer loop
      vertex   4.675091e+01 -3.368329e+01  1.030903e+01
      vertex   5.525984e+01 -2.912070e+01  1.460501e+01
      vertex   5.513577e+01 -3.381898e+01  2.171151e+01
    endloop
  endfacet
  facet normal -5.897037e-01  2.240095e-02  8.073089e-01
    outer loop
      vertex   3.111716e+01  2.649944e+01  1.124342e+02
      vertex   2.336201e+01  2.039640e+01  1.069388e+02
      vertex   2.954287e+01  1.176572e+01  1.116931e+02
    endloop
  endfacet
  facet normal -1.196800e-01 -7.797421e-01  6.145558e-01
    outer loop
      vertex   1.397730e+01 -1.752172e+01  6.543388e+01
      vertex   1.246042e+01 -2.763136e+01  5.231147e+01
      vertex   2.716111e+01 -2.021051e+01  6.458981e+01
    endloop
  endfacet
  facet normal  9.844302e-03  9.551002e-01 -2.961192e-01
    outer loop
      vertex   2.922699e+01  1.870715e+01  4.453949e+01
      vertex   2.105088e+01  1.474404e+01  3.148511e+01
      vertex   5.591862e+00  2.020020e+01  4.856943e+01
    endloop
  endfacet
  facet normal  3.422043e-01  9.374650e-01 -6.368367e-02
    outer loop
      vertex   5.667658e+01  1.893350e+01  4.275403e+01
      vertex   6.393593e+01  1.573615e+01  3.469513e+01
      vertex   3.651894e+01  2.635740e+01  4.372159e+01
    endloop
  endfacet
  facet normal -8.860863e-01 -9.288704e-02 -4.541176e-01
    outer loop
      vertex  -1.951202e+01 -2.439798e+01  5.755654e+01
      vertex  -2.272194e+01 -2.636111e+01  6.422137e+01
      vertex  -2.255702e+01 -7.863877e+00  6.011609e+01
    endloop
  endfacet
  facet normal  7.880985e-01  4.553612e-01 -4.141822e-01
    outer loop
      vertex   6.309252e+01  1.391030e+01  2.204301e+01
      vertex   7.410368e+01 -2.433340e+00  2.502628e+01
      vertex   6.539270e+01  1.685113e+00  1.297910e+01
    endloop
  endfacet
  facet normal -1.731658e-01  9.836289e-01 -4.987855e-02
    outer loop
      vertex   8.380380e+00  4.398431e+01  1.076638e+02
      vertex   1.830935e+01  4.519733e+01  9.711421e+01
      vertex   6.276077e+00  4.275445e+01  9.071604e+01
    endloop
  endfacet
  facet normal  2.859741e-01  8.741789e-01 -3.924667e-01
    outer loop
      vertex   5.643939e+01  1.256831e+01  1.420601e+01
      vertex   4.996050e+01  2.149426e+01  2.936674e+01
      vertex   6.309252e+01  1.391030e+01  2.204301e+01
    endloop
  endfacet
  facet normal -9.808505e-01  1.398676e-01 -1.355334e-01
    outer loop
      vertex   7.373121e+00 -2.027311e+01  1.988605e+01
      vertex   1.006120e+01 -1.079148e+01  1.021739e+01
      vertex   7.337845e+00 -2.484254e+01  1.542577e+01
    endloop
  endfacet
  facet normal  1.764124e-01  9.446341e-01 -2.766674e-01
    outer loop
      vertex   4.996050e+01  2.149426e+01  2.936674e+01
      vertex   3.837430e+01  1.997420e+01  1.678900e+01
      vertex   2.856502e+01  2.642729e+01  3.256726e+01
    endloop
  endfacet
  facet normal -1.329611e-01 -7.807367e-01  6.105503e-01
    outer loop
      vertex  -1.814861e+00 -7.484867e+00  1.185942e+01
      vertex  -4.568712e-01 -1.288179e+01  5.253883e+00
      vertex   1.006120e+01 -1.079148e+01  1.021739e+01
    endloop
  endfacet
  facet normal -2.664213e-01  5.040708e-01  8.215426e-01
    outer loop
      vertex   1.039311e+01  6.124787e+00  1.484243e+01
      vertex   3.186299e+01  1.709135e+01  1.507627e+01
      vertex   1.346740e+01  1.750257e+01  8.858381e+00
    endloop
  endfacet
  facet normal  4.556026e-01  8.328296e-01  3.143582e-01
    outer loop
      vertex   4.804572e+00  1.032767e+01  7.893103e+01
      vertex   9.657615e+00  7.293525e+00  7.993582e+01
      vertex   1.132273e+01  1.069537e+01  6.851003e+01
    endloop
  endfacet
  facet normal  9.749274e-01 -1.522243e-01  1.623093e-01
    outer loop
      vertex   8.299677e+01 -9.758068e+00  3.168516e+01
      vertex   8.201183e+01 -2.244885e+01  2.569910e+01
      vertex   8.423294e+01 -1.080919e+01  2.327418e+01
    endloop
  endfacet
  facet normal  1.839338e-01  9.417967e-01  2.814025e-01
    outer loop
      vertex   1.621977e+01  4.100418e+01  1.125136e+02
      vertex   1.830935e+01  4.519733e+01  9.711421e+01
      vertex   8.380380e+00  4.398431e+01  1.076638e+02
    endloop
  endfacet
  facet normal  9.803623e-01  1.835422e-01 -7.212466e-02
    outer loop
      vertex   4.804572e+00  1.032767e+01  7.893103e+01
      vertex   3.330716e+00  1.961722e+01  8.253745e+01
      vertex   4.804305e+00  1.435305e+01  8.917117e+01
    endloop
  endfacet
  facet normal -9.025950e-01  3.811986e-01 -2.000244e-01
    outer loop
      vertex  -2.388985e+01 -7.028679e+00  6.772208e+01
      vertex  -1.701632e+01  6.631052e+00  6.273796e+01
      vertex  -2.255702e+01 -7.863877e+00  6.011609e+01
    endloop
  endfacet
  facet normal  1.952143e-01 -8.733868e-01  4.461916e-01
    outer loop
      vertex   1.039755e+01 -3.888087e+00  8.970954e+01
      vertex   2.261688e+01  2.458947e+00  9.678728e+01
      vertex   7.051953e+00 -3.029980e+00  9.285296e+01
    endloop
  endfacet
  facet normal -2.146873e-01 -8.169596e-01  5.352442e-01
    outer loop
      vertex   1.987436e+01 -3.705016e+01  7.225319e+00
      vertex   3.145263e+01 -3.474392e+01  1.538947e+01
      vertex   1.784795e+01 -2.994757e+01  1.725342e+01
    endloop
  endfacet
  facet normal -2.623071e-02  7.560540e-01 -6.539833e-01
    outer loop
      vertex   2.890240e+01  2.060259e+01  9.455021e+01
      vertex   3.636321e+01  1.984985e+01  9.338074e+01
      vertex   9.657615e+00  7.293525e+00  7.993582e+01
    endloop
  endfacet
  facet normal  3.484721e-01  9.344777e-01  7.292896e-02
    outer loop
      vertex   5.922304e+01  1.188685e+01  6.399116e+01
      vertex   6.824212e+01  9.494752e+00  5.154704e+01
      vertex   5.781429e+01  1.320491e+01  5.383342e+01
    endloop
  endfacet
  facet normal  7.018086e-01 -7.014695e-01 -1.241176e-01
    outer loop
      vertex   7.716012e+01 -2.024839e+01  4.003556e+01
      vertex   6.427756e+01 -2.907714e+01  1.708965e+01
      vertex   7.523550e+01 -2.046164e+01  3.035824e+01
    endloop
  endfacet
  facet normal  9.511100e-01  2.667617e-01 -1.556533e-01
    outer loop
      vertex   3.819571e+01  2.346821e+01  1.107793e+02
      vertex   3.636321e+01  1.984985e+01  9.338074e+01
      vertex   3.536323e+01  3.064352e+01  1.057688e+02
    endloop
  endfacet
  facet normal  4.310720e-01 -4.120879e-01  8.027207e-01
    outer loop
      vertex   7.523550e+01 -2.046164e+01  3.035824e+01
      vertex   8.201183e+01 -2.244885e+01  2.569910e+01
      vertex   8.299677e+01 -9.758068e+00  3.168516e+01
    endloop
  endfacet
  facet normal  4.685285e-01 -8.453678e-01  2.565820e-01
    outer loop
      vertex   5.515216e+01 -3.540131e+01  5.034921e+01
      vertex   7.184776e+01 -2.579500e+01  5.151261e+01
      vertex   6.242803e+01 -2.838229e+01  6.018897e+01
    endloop
  endfacet
  facet normal  9.985726e-01  1.312223e-02  5.177275e-02
    outer loop
      vertex   7.614129e+01 -2.216267e+00  5.511596e+01
      vertex   7.716012e+01 -2.024839e+01  4.003556e+01
      vertex   7.744384e+01 -9.292519e+00  3.178639e+01
    endloop
  endfacet
  facet normal -8.773918e-01 -4.722294e-01  8.475302e-02
    outer loop
      vertex  -2.051168e+01 -9.214548e+00  4.644172e+01
      vertex  -1.561965e+01 -1.923495e+01  4.125364e+01
      vertex  -1.529506e+01 -1.733993e+01  5.517272e+01
    endloop
  endfacet
  facet normal  3.039742e-01  1.795268e-01  9.356120e-01
    outer loop
      vertex   4.875200e+01 -1.075025e+01  7.524890e+01
      vertex   6.376954e+01 -6.074312e+00  6.947257e+01
      vertex   5.079567e+01  1.508498e+00  7.223270e+01
    endloop
  endfacet
  facet normal -8.774216e-01 -1.293361e-01 -4.619561e-01
    outer loop
      vertex  -1.608183e+01  1.182789e+00  3.627231e+01
      vertex  -7.135612e+00 -1.508704e+01  2.383535e+01
      vertex  -1.010805e+01 -2.098358e+01  3.113196e+01
    endloop
  endfacet
  facet normal  7.016086e-01  5.934415e-01  3.944269e-01
    outer loop
      vertex   5.922304e+01  1.188685e+01  6.399116e+01
      vertex   7.614129e+01 -2.216267e+00  5.511596e+01
      vertex   6.824212e+01  9.494752e+00  5.154704e+01
    endloop
  endfacet
  facet normal  8.688301e-01  4.804977e-01  1.193986e-01
    outer loop
      vertex   1.318477e+01  5.107630e-01  8.156567e+01
      vertex   1.688177e+01 -3.674679e+00  7.150721e+01
      vertex   9.657615e+00  7.293525e+00  7.993582e+01
    endloop
  endfacet
  facet normal -8.860017e-01  4.245148e-01 -1.865159e-01
    outer loop
      vertex  -7.096308e+00  1.137935e+01  8.282804e+01
      vertex   6.276077e+00  4.275445e+01  9.071604e+01
      vertex   4.598203e+00  3.635846e+01  8.412896e+01
    endloop
  endfacet
  facet normal -4.655771e-01  6.120749e-01 -6.392201e-01
    outer loop
      vertex  -1.736278e+01 -2.177474e+00  5.455584e+01
      vertex  -1.701632e+01  6.631052e+00  6.273796e+01
      vertex  -5.462559e+00  1.113649e+01  5.863687e+01
    endloop
  endfacet
  facet normal -4.331026e-01  8.526952e-01  2.921181e-01
    outer loop
      vertex   5.591862e+00  2.020020e+01  4.856943e+01
      vertex  -8.192490e+00  1.445539e+01  4.490150e+01
      vertex  -5.462559e+00  1.113649e+01  5.863687e+01
    endloop
  endfacet
  facet normal  2.301749e-01  3.837096e-01 -8.943078e-01
    outer loop
      vertex   3.330716e+00  1.961722e+01  8.253745e+01
      vertex   4.804572e+00  1.032767e+01  7.893103e+01
      vertex  -2.564851e+00  1.245848e+01  7.794855e+01
    endloop
  endfacet
  facet normal -2.776177e-01  5.507285e-01  7.871636e-01
    outer loop
      vertex   1.880368e+00  3.706637e+01  1.102114e+02
      vertex   1.621977e+01  4.100418e+01  1.125136e+02
      vertex   8.380380e+00  4.398431e+01  1.076638e+02
    endloop
  endfacet
  facet normal -5.059767e-01 -4.822071e-01  7.151670e-01
    outer loop
      vertex  -2.582051e+00  3.291964e+00  9.029958e+01
      vertex   7.051953e+00 -3.029980e+00  9.285296e+01
      vertex   9.679700e+00  4.997551e+00  1.001247e+02
    endloop
  endfacet
  facet normal -5.731399e-02  2.975607e-01  9.529809e-01
    outer loop
      vertex  -4.205371e+00 -8.040327e+00  9.374036e+01
      vertex   7.051953e+00 -3.029980e+00  9.285296e+01
      vertex  -2.582051e+00  3.291964e+00  9.029958e+01
    endloop
  endfacet
  facet normal -1.516183e-01  1.999978e-01  9.679942e-01
    outer loop
      vertex   4.804305e+00  1.435305e+01  8.917117e+01
      vertex  -2.582051e+00  3.291964e+00  9.029958e+01
      vertex   6.386195e+00  8.425776e+00  9.064359e+01
    endloop
  endfacet
  facet normal -3.984369e-01 -1.029071e-01  9.114046e-01
    outer loop
      vertex  -2.159370e+01 -5.908784e+00  8.637942e+01
      vertex  -1.411741e+01 -1.690699e+01  8.840600e+01
      vertex  -4.205371e+00 -8.040327e+00  9.374036e+01
    endloop
  endfacet
  facet normal -9.190214e-01  1.152919e-02  3.940387e-01
    outer loop
      vertex  -2.388985e+01 -7.028679e+00  6.772208e+01
      vertex  -2.001826e+01 -2.449141e+01  7.726279e+01
      vertex  -1.934169e+01 -1.290740e+00  7.816193e+01
    endloop
  endfacet
  facet normal  9.797031e-01  2.003621e-01 -6.073793e-03
    outer loop
      vertex   7.614129e+01 -2.216267e+00  5.511596e+01
      vertex   7.744384e+01 -9.292519e+00  3.178639e+01
      vertex   7.417746e+01  6.971712e+00  4.144296e+01
    endloop
  endfacet
  facet normal -7.604514e-02 -4.949289e-01  8.655995e-01
    outer loop
      vertex   3.630415e+00 -1.940183e+01  8.853870e+01
      vertex  -1.411741e+01 -1.690699e+01  8.840600e+01
      vertex  -6.772095e+00 -2.736722e+01  8.307040e+01
    endloop
  endfacet
  facet normal  5.876637e-01  5.503206e-01 -5.931263e-01
    outer loop
      vertex   6.309252e+01  1.391030e+01  2.204301e+01
      vertex   6.539270e+01  1.685113e+00  1.297910e+01
      vertex   5.643939e+01  1.256831e+01  1.420601e+01
    endloop
  endfacet
  facet normal -6.129676e-01  6.532816e-01 -4.444028e-01
    outer loop
      vertex  -1.608183e+01  1.182789e+00  3.627231e+01
      vertex  -8.192490e+00  1.445539e+01  4.490150e+01
      vertex  -7.553542e+00  1.506406e+00  2.498491e+01
    endloop
  endfacet
  facet normal -2.573143e-01  8.414937e-01  4.750553e-01
    outer loop
      vertex   1.132273e+01  1.069537e+01  6.851003e+01
      vertex   5.591862e+00  2.020020e+01  4.856943e+01
      vertex  -5.462559e+00  1.113649e+01  5.863687e+01
    endloop
  endfacet
  facet normal -6.905077e-01 -7.099350e-01 -1.385338e-01
    outer loop
      vertex   1.629631e+01 -3.071138e+01  2.890167e+01
      vertex   7.373121e+00 -2.027311e+01  1.988605e+01
      vertex   1.784795e+01 -2.994757e+01  1.725342e+01
    endloop
  endfacet
  facet normal -9.403161e-01  3.179167e-01  1.213866e-01
    outer loop
      vertex   8.905133e+00  5.376803e+00  5.274907e+00
      vertex   1.039311e+01  6.124787e+00  1.484243e+01
      vertex   1.346740e+01  1.750257e+01  8.858381e+00
    endloop
  endfacet
  facet normal  9.193882e-04 -1.831649e-03 -9.999979e-01
    outer loop
      vertex   5.483199e+01  1.299079e+01  5.351871e+00
      vertex   5.492335e+01 -2.649934e-01  5.376235e+00
      vertex   2.239580e+01  1.855037e+01  5.311866e+00
    endloop
  endfacet
  facet normal -9.166612e-01  3.995590e-01  9.212168e-03
    outer loop
      vertex  -1.736278e+01 -2.177474e+00  5.455584e+01
      vertex  -1.608183e+01  1.182789e+00  3.627231e+01
      vertex  -2.051168e+01 -9.214548e+00  4.644172e+01
    endloop
  endfacet
  facet normal  3.895834e-01  3.576290e-01  8.487204e-01
    outer loop
      vertex   5.079567e+01  1.508498e+00  7.223270e+01
      vertex   6.376954e+01 -6.074312e+00  6.947257e+01
      vertex   5.922304e+01  1.188685e+01  6.399116e+01
    endloop
  endfacet
  facet normal -4.225712e-01 -6.293885e-01  6.521531e-01
    outer loop
      vertex  -6.772095e+00 -2.736722e+01  8.307040e+01
      vertex  -1.411741e+01 -1.690699e+01  8.840600e+01
      vertex  -2.001826e+01 -2.449141e+01  7.726279e+01
    endloop
  endfacet
  facet normal -3.581410e-01 -2.081367e-01  9.101726e-01
    outer loop
      vertex   4.788056e+01 -2.329202e+01  7.203797e+01
      vertex   4.875200e+01 -1.075025e+01  7.524890e+01
      vertex   2.716111e+01 -2.021051e+01  6.458981e+01
    endloop
  endfacet
  facet normal  9.675277e-01  2.352505e-01 -9.245149e-02
    outer loop
      vertex   6.386195e+00  8.425776e+00  9.064359e+01
      vertex   4.804572e+00  1.032767e+01  7.893103e+01
      vertex   4.804305e+00  1.435305e+01  8.917117e+01
    endloop
  endfacet
  facet normal  2.309973e-01 -7.584442e-01  6.094281e-01
    outer loop
      vertex   4.255122e+01 -3.109136e+01  6.435158e+01
      vertex   6.242803e+01 -2.838229e+01  6.018897e+01
      vertex   4.788056e+01 -2.329202e+01  7.203797e+01
    endloop
  endfacet
  facet normal  7.715261e-04 -2.087268e-03 -9.999976e-01
    outer loop
      vertex   2.239580e+01  1.855037e+01  5.311866e+00
      vertex   5.492335e+01 -2.649934e-01  5.376235e+00
      vertex  -6.452787e+00 -2.276463e+01  5.375844e+00
    endloop
  endfacet
  facet normal -6.724255e-01  7.094764e-01  2.109198e-01
    outer loop
      vertex   8.380380e+00  4.398431e+01  1.076638e+02
      vertex  -4.462166e+00  3.305618e+01  1.034802e+02
      vertex   1.880368e+00  3.706637e+01  1.102114e+02
    endloop
  endfacet
  facet normal  8.263173e-02  9.891316e-01  1.216172e-01
    outer loop
      vertex   3.265084e+01  1.657406e+01  5.956193e+01
      vertex   4.615999e+01  1.662592e+01  4.996154e+01
      vertex   2.922699e+01  1.870715e+01  4.453949e+01
    endloop
  endfacet
  facet normal -4.773919e-01  8.574799e-01 -1.918994e-01
    outer loop
      vertex   2.105088e+01  1.474404e+01  3.148511e+01
      vertex   3.186299e+01  1.709135e+01  1.507627e+01
      vertex   6.239258e+00  4.278805e+00  2.156959e+01
    endloop
  endfacet
  facet normal -6.427820e-01 -7.342030e-01  2.185802e-01
    outer loop
      vertex  -4.711780e+00 -2.459898e+01  5.531302e+01
      vertex  -1.561965e+01 -1.923495e+01  4.125364e+01
      vertex  -1.693329e+00 -3.041491e+01  4.465390e+01
    endloop
  endfacet
  facet normal -4.330986e-01  8.729092e-01 -2.246220e-01
    outer loop
      vertex   6.386195e+00  8.425776e+00  9.064359e+01
      vertex   2.890240e+01  2.060259e+01  9.455021e+01
      vertex   9.657615e+00  7.293525e+00  7.993582e+01
    endloop
  endfacet
  facet normal  7.049142e-01 -5.736784e-01 -4.171201e-01
    outer loop
      vertex   7.437795e+01 -1.698301e+01  5.280865e+00
      vertex   8.201183e+01 -2.244885e+01  2.569910e+01
      vertex   6.726598e+01 -2.576189e+01  5.335831e+00
    endloop
  endfacet
  facet normal  6.534511e-01  3.673882e-01  6.618364e-01
    outer loop
      vertex   7.614129e+01 -2.216267e+00  5.511596e+01
      vertex   5.922304e+01  1.188685e+01  6.399116e+01
      vertex   6.376954e+01 -6.074312e+00  6.947257e+01
    endloop
  endfacet
  facet normal  3.835110e-01  8.358438e-01  3.927906e-01
    outer loop
      vertex   5.781429e+01  1.320491e+01  5.383342e+01
      vertex   6.824212e+01  9.494752e+00  5.154704e+01
      vertex   5.667658e+01  1.893350e+01  4.275403e+01
    endloop
  endfacet
  facet normal -1.871957e-01  9.710924e-02 -9.775109e-01
    outer loop
      vertex  -5.434093e+00  1.448322e+00  7.630634e+00
      vertex   8.905133e+00  5.376803e+00  5.274907e+00
      vertex  -4.568712e-01 -1.288179e+01  5.253883e+00
    endloop
  endfacet
  facet normal -4.110478e-02  9.815899e-01  1.865255e-01
    outer loop
      vertex   2.239580e+01  1.855037e+01  5.311866e+00
      vertex   1.346740e+01  1.750257e+01  8.858381e+00
      vertex   3.186299e+01  1.709135e+01  1.507627e+01
    endloop
  endfacet
  facet normal  9.839512e-01  6.454153e-03 -1.783209e-01
    outer loop
      vertex   5.483199e+01  1.299079e+01  5.351871e+00
      vertex   5.643939e+01  1.256831e+01  1.420601e+01
      vertex   5.492335e+01 -2.649934e-01  5.376235e+00
    endloop
  endfacet
  facet normal -3.563108e-01 -5.209566e-01  7.756590e-01
    outer loop
      vertex   4.255122e+01 -3.109136e+01  6.435158e+01
      vertex   4.788056e+01 -2.329202e+01  7.203797e+01
      vertex   2.716111e+01 -2.021051e+01  6.458981e+01
    endloop
  endfacet
  facet normal  7.592691e-01 -1.362847e-02  6.506341e-01
    outer loop
      vertex   7.614129e+01 -2.216267e+00  5.511596e+01
      vertex   6.376954e+01 -6.074312e+00  6.947257e+01
      vertex   6.775669e+01 -1.978535e+01  6.453250e+01
    endloop
  endfacet
  facet normal  3.662021e-01 -9.262695e-01 -8.899902e-02
    outer loop
      vertex   4.271335e+01 -4.142763e+01  3.045938e+01
      vertex   6.288568e+01 -3.411769e+01  3.738273e+01
      vertex   4.920783e+01 -3.996623e+01  4.197237e+01
    endloop
  endfacet
  facet normal -7.596493e-02 -9.934633e-01  8.520494e-02
    outer loop
      vertex   2.772405e+01 -3.977682e+01  4.186900e+01
      vertex   3.118093e+01 -4.130659e+01  2.711434e+01
      vertex   3.949839e+01 -4.030412e+01  4.621829e+01
    endloop
  endfacet
  facet normal -6.227156e-01  6.414541e-01  4.480645e-01
    outer loop
      vertex   3.651894e+01  2.635740e+01  4.372159e+01
      vertex   2.856502e+01  2.642729e+01  3.256726e+01
      vertex   2.922699e+01  1.870715e+01  4.453949e+01
    endloop
  endfacet
  facet normal -8.677591e-01  4.960561e-01  3.037309e-02
    outer loop
      vertex  -1.736278e+01 -2.177474e+00  5.455584e+01
      vertex  -8.192490e+00  1.445539e+01  4.490150e+01
      vertex  -1.608183e+01  1.182789e+00  3.627231e+01
    endloop
  endfacet
  facet normal -2.409877e-01  8.365914e-01 -4.919755e-01
    outer loop
      vertex   3.186299e+01  1.709135e+01  1.507627e+01
      vertex   2.856502e+01  2.642729e+01  3.256726e+01
      vertex   3.837430e+01  1.997420e+01  1.678900e+01
    endloop
  endfacet
  facet normal -1.576200e-01  2.606312e-01  9.524849e-01
    outer loop
      vertex   2.923695e+01  1.372280e+00  6.870237e+01
      vertex   4.875200e+01 -1.075025e+01  7.524890e+01
      vertex   5.079567e+01  1.508498e+00  7.223270e+01
    endloop
  endfacet
  facet normal -8.934364e-01 -1.040611e-01  4.369699e-01
    outer loop
      vertex  -2.051168e+01 -9.214548e+00  4.644172e+01
      vertex  -1.529506e+01 -1.733993e+01  5.517272e+01
      vertex  -1.736278e+01 -2.177474e+00  5.455584e+01
    endloop
  endfacet
  facet normal -7.461777e-01  5.185775e-01 -4.174882e-01
    outer loop
      vertex   2.856502e+01  2.642729e+01  3.256726e+01
      vertex   3.186299e+01  1.709135e+01  1.507627e+01
      vertex   2.105088e+01  1.474404e+01  3.148511e+01
    endloop
  endfacet
  facet normal  4.213070e-01  6.251286e-01  6.570500e-01
    outer loop
      vertex   3.111716e+01  2.649944e+01  1.124342e+02
      vertex   3.819571e+01  2.346821e+01  1.107793e+02
      vertex   3.536323e+01  3.064352e+01  1.057688e+02
    endloop
  endfacet
  facet normal -3.790658e-01  3.905438e-01 -8.389188e-01
    outer loop
      vertex   1.346740e+01  1.750257e+01  8.858381e+00
      vertex   2.239580e+01  1.855037e+01  5.311866e+00
      vertex   8.905133e+00  5.376803e+00  5.274907e+00
    endloop
  endfacet
  facet normal -7.625215e-01  6.304312e-01  1.453188e-01
    outer loop
      vertex  -9.316551e+00  8.589153e+00  8.790459e+01
      vertex  -1.934169e+01 -1.290740e+00  7.816193e+01
      vertex  -2.159370e+01 -5.908784e+00  8.637942e+01
    endloop
  endfacet
  facet normal -5.809640e-01 -3.835190e-01  7.179095e-01
    outer loop
      vertex   1.371671e+00 -2.963838e+01  8.035669e+00
      vertex   7.337845e+00 -2.484254e+01  1.542577e+01
      vertex  -6.452787e+00 -2.276463e+01  5.375844e+00
    endloop
  endfacet
  facet normal -9.044221e-01  3.849289e-01 -1.839850e-01
    outer loop
      vertex  -4.245932e+00  2.364100e+01  9.446986e+01
      vertex  -7.096308e+00  1.137935e+01  8.282804e+01
      vertex  -9.316551e+00  8.589153e+00  8.790459e+01
    endloop
  endfacet
  facet normal -9.793070e-01  5.213166e-02  1.955507e-01
    outer loop
      vertex  -2.272194e+01 -2.636111e+01  6.422137e+01
      vertex  -2.001826e+01 -2.449141e+01  7.726279e+01
      vertex  -2.255702e+01 -7.863877e+00  6.011609e+01
    endloop
  endfacet
  facet normal -3.246270e-02 -7.899369e-01  6.123282e-01
    outer loop
      vertex  -4.711780e+00 -2.459898e+01  5.531302e+01
      vertex   1.246042e+01 -2.763136e+01  5.231147e+01
      vertex   1.397730e+01 -1.752172e+01  6.543388e+01
    endloop
  endfacet
  facet normal -2.333804e-01 -6.097478e-01  7.574571e-01
    outer loop
      vertex   7.051953e+00 -3.029980e+00  9.285296e+01
      vertex   2.954287e+01  1.176572e+01  1.116931e+02
      vertex   9.679700e+00  4.997551e+00  1.001247e+02
    endloop
  endfacet
  facet normal -4.071185e-01 -7.067271e-01  5.786116e-01
    outer loop
      vertex  -2.001826e+01 -2.449141e+01  7.726279e+01
      vertex  -1.448315e+01 -3.290486e+01  7.088103e+01
      vertex  -6.772095e+00 -2.736722e+01  8.307040e+01
    endloop
  endfacet
  facet normal  2.902345e-01  7.035065e-01  6.487238e-01
    outer loop
      vertex   5.667658e+01  1.893350e+01  4.275403e+01
      vertex   3.651894e+01  2.635740e+01  4.372159e+01
      vertex   4.615999e+01  1.662592e+01  4.996154e+01
    endloop
  endfacet
  facet normal  2.493396e-01  9.497009e-01  1.894679e-01
    outer loop
      vertex  -2.564851e+00  1.245848e+01  7.794855e+01
      vertex   4.804572e+00  1.032767e+01  7.893103e+01
      vertex   1.132273e+01  1.069537e+01  6.851003e+01
    endloop
  endfacet
  facet normal -9.368067e-01 -3.394310e-01  8.473326e-02
    outer loop
      vertex  -4.568712e-01 -1.288179e+01  5.253883e+00
      vertex  -1.814861e+00 -7.484867e+00  1.185942e+01
      vertex  -5.434093e+00  1.448322e+00  7.630634e+00
    endloop
  endfacet
  facet normal  7.861466e-01 -3.870893e-01 -4.818042e-01
    outer loop
      vertex   4.804305e+00  1.435305e+01  8.917117e+01
      vertex   3.330716e+00  1.961722e+01  8.253745e+01
      vertex   1.948527e+01  3.863007e+01  9.362115e+01
    endloop
  endfacet
  facet normal -2.196980e-01  8.546135e-01  4.704981e-01
    outer loop
      vertex   1.132273e+01  1.069537e+01  6.851003e+01
      vertex   1.737378e+01  1.559568e+01  6.243464e+01
      vertex   5.591862e+00  2.020020e+01  4.856943e+01
    endloop
  endfacet
  facet normal -4.548523e-01  2.863653e-01  8.432700e-01
    outer loop
      vertex  -6.452787e+00 -2.276463e+01  5.375844e+00
      vertex   1.006120e+01 -1.079148e+01  1.021739e+01
      vertex  -4.568712e-01 -1.288179e+01  5.253883e+00
    endloop
  endfacet
  facet normal -1.351925e-01  5.801705e-01  8.031969e-01
    outer loop
      vertex   4.360511e+01  1.160811e+01  6.372718e+01
      vertex   2.923695e+01  1.372280e+00  6.870237e+01
      vertex   5.079567e+01  1.508498e+00  7.223270e+01
    endloop
  endfacet
  facet normal  8.492269e-01 -4.691280e-01 -2.423478e-01
    outer loop
      vertex   1.948527e+01  3.863007e+01  9.362115e+01
      vertex   2.124067e+01  3.632899e+01  1.042267e+02
      vertex   4.804305e+00  1.435305e+01  8.917117e+01
    endloop
  endfacet
  facet normal  6.859332e-01 -6.897875e-01  2.317084e-01
    outer loop
      vertex   5.315333e+00 -1.699988e+01  8.026006e+01
      vertex  -5.818198e+00 -3.393497e+01  6.280384e+01
      vertex   1.500826e+00 -2.591761e+01  6.500450e+01
    endloop
  endfacet
  facet normal  8.123189e-01 -3.686142e-01  4.519531e-01
    outer loop
      vertex   1.318477e+01  5.107630e-01  8.156567e+01
      vertex   1.397730e+01 -1.752172e+01  6.543388e+01
      vertex   1.688177e+01 -3.674679e+00  7.150721e+01
    endloop
  endfacet
  facet normal -7.282720e-01  6.829267e-01  5.684136e-02
    outer loop
      vertex  -9.316551e+00  8.589153e+00  8.790459e+01
      vertex  -7.096308e+00  1.137935e+01  8.282804e+01
      vertex  -1.934169e+01 -1.290740e+00  7.816193e+01
    endloop
  endfacet
  facet normal  6.959377e-01 -5.774209e-01  4.269144e-01
    outer loop
      vertex   5.315333e+00 -1.699988e+01  8.026006e+01
      vertex   1.397730e+01 -1.752172e+01  6.543388e+01
      vertex   1.039755e+01 -3.888087e+00  8.970954e+01
    endloop
  endfacet
  facet normal  8.928495e-02 -9.355676e-01 -3.416745e-01
    outer loop
      vertex   3.118093e+01 -4.130659e+01  2.711434e+01
      vertex   4.675091e+01 -3.368329e+01  1.030903e+01
      vertex   4.271335e+01 -4.142763e+01  3.045938e+01
    endloop
  endfacet
  facet normal -8.372495e-01  3.894680e-01 -3.838332e-01
    outer loop
      vertex  -1.701632e+01  6.631052e+00  6.273796e+01
      vertex  -1.736278e+01 -2.177474e+00  5.455584e+01
      vertex  -2.255702e+01 -7.863877e+00  6.011609e+01
    endloop
  endfacet
  facet normal  7.493812e-01  5.943832e-01  2.917812e-01
    outer loop
      vertex   7.614129e+01 -2.216267e+00  5.511596e+01
      vertex   7.417746e+01  6.971712e+00  4.144296e+01
      vertex   6.824212e+01  9.494752e+00  5.154704e+01
    endloop
  endfacet
  facet normal -6.214061e-04 -1.933785e-03 -9.999980e-01
    outer loop
      vertex   6.726598e+01 -2.576189e+01  5.335831e+00
      vertex  -6.452787e+00 -2.276463e+01  5.375844e+00
      vertex   7.047156e+01 -5.591371e+00  5.294834e+00
    endloop
  endfacet
  facet normal  2.647476e-01  7.814584e-01 -5.650056e-01
    outer loop
      vertex   5.492335e+01 -2.649934e-01  5.376235e+00
      vertex   6.539270e+01  1.685113e+00  1.297910e+01
      vertex   7.047156e+01 -5.591371e+00  5.294834e+00
    endloop
  endfacet
  facet normal  6.987938e-01 -7.149822e-01 -2.208594e-02
    outer loop
      vertex   7.184776e+01 -2.579500e+01  5.151261e+01
      vertex   6.288568e+01 -3.411769e+01  3.738273e+01
      vertex   7.716012e+01 -2.024839e+01  4.003556e+01
    endloop
  endfacet
  facet normal -7.554684e-02 -8.841619e-01  4.610321e-01
    outer loop
      vertex   1.246042e+01 -2.763136e+01  5.231147e+01
      vertex  -4.711780e+00 -2.459898e+01  5.531302e+01
      vertex  -1.693329e+00 -3.041491e+01  4.465390e+01
    endloop
  endfacet
  facet normal  8.319604e-02  9.891006e-01  1.214841e-01
    outer loop
      vertex   5.591862e+00  2.020020e+01  4.856943e+01
      vertex   3.265084e+01  1.657406e+01  5.956193e+01
      vertex   2.922699e+01  1.870715e+01  4.453949e+01
    endloop
  endfacet
  facet normal -4.705111e-01 -6.778693e-01  5.649005e-01
    outer loop
      vertex   2.716111e+01 -2.021051e+01  6.458981e+01
      vertex   2.354934e+01 -3.161587e+01  4.789533e+01
      vertex   4.255122e+01 -3.109136e+01  6.435158e+01
    endloop
  endfacet
  facet normal -3.124271e-01 -7.596786e-01 -5.703312e-01
    outer loop
      vertex  -1.425834e+00 -2.869783e+01  3.592781e+01
      vertex   7.373121e+00 -2.027311e+01  1.988605e+01
      vertex   1.629631e+01 -3.071138e+01  2.890167e+01
    endloop
  endfacet
  facet normal -4.428110e-01  8.776521e-01 -1.834264e-01
    outer loop
      vertex   2.336201e+01  2.039640e+01  1.069388e+02
      vertex   2.890240e+01  2.060259e+01  9.455021e+01
      vertex   6.386195e+00  8.425776e+00  9.064359e+01
    endloop
  endfacet
  facet normal -3.207950e-02  9.990606e-01  2.913464e-02
    outer loop
      vertex   4.123325e+01  2.683197e+01  3.263881e+01
      vertex   2.856502e+01  2.642729e+01  3.256726e+01
      vertex   3.651894e+01  2.635740e+01  4.372159e+01
    endloop
  endfacet
  facet normal  2.409300e-01  6.649138e-01 -7.069953e-01
    outer loop
      vertex   1.830935e+01  4.519733e+01  9.711421e+01
      vertex   4.598203e+00  3.635846e+01  8.412896e+01
      vertex   6.276077e+00  4.275445e+01  9.071604e+01
    endloop
  endfacet
  facet normal  8.453485e-01  4.751870e-01  2.440967e-01
    outer loop
      vertex   1.621977e+01  4.100418e+01  1.125136e+02
      vertex   2.124067e+01  3.632899e+01  1.042267e+02
      vertex   1.830935e+01  4.519733e+01  9.711421e+01
    endloop
  endfacet
  facet normal -2.528262e-01  1.130132e-01  9.608886e-01
    outer loop
      vertex  -9.316551e+00  8.589153e+00  8.790459e+01
      vertex  -2.159370e+01 -5.908784e+00  8.637942e+01
      vertex  -2.582051e+00  3.291964e+00  9.029958e+01
    endloop
  endfacet
  facet normal  3.423057e-01  8.247718e-01  4.500871e-01
    outer loop
      vertex   8.299677e+01 -9.758068e+00  3.168516e+01
      vertex   7.997745e+01 -3.087993e+00  2.175873e+01
      vertex   7.410368e+01 -2.433340e+00  2.502628e+01
    endloop
  endfacet
  facet normal -7.595106e-01  4.811182e-01  4.378000e-01
    outer loop
      vertex   9.679700e+00  4.997551e+00  1.001247e+02
      vertex   2.336201e+01  2.039640e+01  1.069388e+02
      vertex   6.386195e+00  8.425776e+00  9.064359e+01
    endloop
  endfacet
  facet normal  1.320492e-01 -8.505342e-01  5.090722e-01
    outer loop
      vertex   5.515216e+01 -3.540131e+01  5.034921e+01
      vertex   6.242803e+01 -2.838229e+01  6.018897e+01
      vertex   3.949839e+01 -4.030412e+01  4.621829e+01
    endloop
  endfacet
  facet normal -7.159255e-01 -6.547851e-01  2.422956e-01
    outer loop
      vertex  -2.001826e+01 -2.449141e+01  7.726279e+01
      vertex  -2.272194e+01 -2.636111e+01  6.422137e+01
      vertex  -1.448315e+01 -3.290486e+01  7.088103e+01
    endloop
  endfacet
  facet normal  3.695417e-01 -9.074252e-01 -2.000464e-01
    outer loop
      vertex   5.513577e+01 -3.381898e+01  2.171151e+01
      vertex   6.427756e+01 -2.907714e+01  1.708965e+01
      vertex   6.288568e+01 -3.411769e+01  3.738273e+01
    endloop
  endfacet
  facet normal  5.189720e-01 -7.881282e-01  3.309412e-01
    outer loop
      vertex   5.315333e+00 -1.699988e+01  8.026006e+01
      vertex   1.500826e+00 -2.591761e+01  6.500450e+01
      vertex   1.397730e+01 -1.752172e+01  6.543388e+01
    endloop
  endfacet
  facet normal  2.076488e-01 -8.857772e-01  4.150673e-01
    outer loop
      vertex   6.242803e+01 -2.838229e+01  6.018897e+01
      vertex   4.255122e+01 -3.109136e+01  6.435158e+01
      vertex   3.949839e+01 -4.030412e+01  4.621829e+01
    endloop
  endfacet
  facet normal -4.760748e-02  6.737761e-01 -7.374004e-01
    outer loop
      vertex   3.636321e+01  1.984985e+01  9.338074e+01
      vertex   2.890240e+01  2.060259e+01  9.455021e+01
      vertex   3.004106e+01  3.060115e+01  1.036126e+02
    endloop
  endfacet
  facet normal -8.264343e-02  5.271016e-01  8.457742e-01
    outer loop
      vertex   3.265084e+01  1.657406e+01  5.956193e+01
      vertex   2.923695e+01  1.372280e+00  6.870237e+01
      vertex   4.360511e+01  1.160811e+01  6.372718e+01
    endloop
  endfacet
  facet normal -4.772739e-01 -6.667966e-01  5.723565e-01
    outer loop
      vertex   4.255122e+01 -3.109136e+01  6.435158e+01
      vertex   2.354934e+01 -3.161587e+01  4.789533e+01
      vertex   2.772405e+01 -3.977682e+01  4.186900e+01
    endloop
  endfacet
  facet normal  1.166563e-01 -8.298893e-02 -9.896991e-01
    outer loop
      vertex  -4.568712e-01 -1.288179e+01  5.253883e+00
      vertex   2.239580e+01  1.855037e+01  5.311866e+00
      vertex  -6.452787e+00 -2.276463e+01  5.375844e+00
    endloop
  endfacet
  facet normal -7.406159e-01  6.365154e-01  2.152585e-01
    outer loop
      vertex  -7.096308e+00  1.137935e+01  8.282804e+01
      vertex  -1.701632e+01  6.631052e+00  6.273796e+01
      vertex  -1.934169e+01 -1.290740e+00  7.816193e+01
    endloop
  endfacet
  facet normal -5.994257e-01 -7.816896e-01 -1.721925e-01
    outer loop
      vertex  -1.425834e+00 -2.869783e+01  3.592781e+01
      vertex  -1.693329e+00 -3.041491e+01  4.465390e+01
      vertex  -1.010805e+01 -2.098358e+01  3.113196e+01
    endloop
  endfacet
  facet normal  9.568857e-01 -1.691726e-01  2.361152e-01
    outer loop
      vertex   1.039755e+01 -3.888087e+00  8.970954e+01
      vertex   1.397730e+01 -1.752172e+01  6.543388e+01
      vertex   1.318477e+01  5.107630e-01  8.156567e+01
    endloop
  endfacet
  facet normal  7.325722e-03 -1.282544e-01  9.917142e-01
    outer loop
      vertex   7.523550e+01 -2.046164e+01  3.035824e+01
      vertex   8.299677e+01 -9.758068e+00  3.168516e+01
      vertex   7.744384e+01 -9.292519e+00  3.178639e+01
    endloop
  endfacet
  facet normal  8.683234e-01  4.915623e-01  6.618758e-02
    outer loop
      vertex   8.299677e+01 -9.758068e+00  3.168516e+01
      vertex   8.423294e+01 -1.080919e+01  2.327418e+01
      vertex   7.997745e+01 -3.087993e+00  2.175873e+01
    endloop
  endfacet
  facet normal -7.654108e-01 -5.867443e-01  2.643431e-01
    outer loop
      vertex   2.354934e+01 -3.161587e+01  4.789533e+01
      vertex   1.629631e+01 -3.071138e+01  2.890167e+01
      vertex   2.772405e+01 -3.977682e+01  4.186900e+01
    endloop
  endfacet
  facet normal  2.315499e-01  4.625761e-01  8.558084e-01
    outer loop
      vertex   2.923695e+01  1.372280e+00  6.870237e+01
      vertex   3.265084e+01  1.657406e+01  5.956193e+01
      vertex   1.132273e+01  1.069537e+01  6.851003e+01
    endloop
  endfacet
  facet normal -3.465059e-04  4.827358e-03 -9.999883e-01
    outer loop
      vertex   4.647015e+01 -3.218012e+01  5.312054e+00
      vertex  -6.452787e+00 -2.276463e+01  5.375844e+00
      vertex   6.726598e+01 -2.576189e+01  5.335831e+00
    endloop
  endfacet
  facet normal  3.126725e-02  6.637733e-01 -7.472799e-01
    outer loop
      vertex   2.113453e+00  1.671648e+01  3.244476e+01
      vertex   2.105088e+01  1.474404e+01  3.148511e+01
      vertex   6.239258e+00  4.278805e+00  2.156959e+01
    endloop
  endfacet
  facet normal -3.111179e-01 -9.475106e-01  7.368442e-02
    outer loop
      vertex   1.629631e+01 -3.071138e+01  2.890167e+01
      vertex   2.354934e+01 -3.161587e+01  4.789533e+01
      vertex   1.246042e+01 -2.763136e+01  5.231147e+01
    endloop
  endfacet
  facet normal -2.691812e-01  9.625107e-01 -3.338464e-02
    outer loop
      vertex   8.905133e+00  5.376803e+00  5.274907e+00
      vertex  -5.434093e+00  1.448322e+00  7.630634e+00
      vertex   1.039311e+01  6.124787e+00  1.484243e+01
    endloop
  endfacet
  facet normal -1.166700e-01 -9.634287e-01  2.412323e-01
    outer loop
      vertex   6.726598e+01 -2.576189e+01  5.335831e+00
      vertex   8.201183e+01 -2.244885e+01  2.569910e+01
      vertex   7.523550e+01 -2.046164e+01  3.035824e+01
    endloop
  endfacet
  facet normal -1.139827e-02  5.089817e-01 -8.607019e-01
    outer loop
      vertex   4.123325e+01  2.683197e+01  3.263881e+01
      vertex   4.996050e+01  2.149426e+01  2.936674e+01
      vertex   2.856502e+01  2.642729e+01  3.256726e+01
    endloop
  endfacet
  facet normal -5.241665e-01  9.105329e-02  8.467342e-01
    outer loop
      vertex   2.336201e+01  2.039640e+01  1.069388e+02
      vertex   9.679700e+00  4.997551e+00  1.001247e+02
      vertex   2.954287e+01  1.176572e+01  1.116931e+02
    endloop
  endfacet
  facet normal  1.984110e-01 -7.037430e-02  9.775891e-01
    outer loop
      vertex   3.819571e+01  2.346821e+01  1.107793e+02
      vertex   3.111716e+01  2.649944e+01  1.124342e+02
      vertex   2.954287e+01  1.176572e+01  1.116931e+02
    endloop
  endfacet
  facet normal -2.591987e-01  9.654410e-01 -2.719703e-02
    outer loop
      vertex  -2.564851e+00  1.245848e+01  7.794855e+01
      vertex  -5.462559e+00  1.113649e+01  5.863687e+01
      vertex  -7.096308e+00  1.137935e+01  8.282804e+01
    endloop
  endfacet
  facet normal -4.353795e-01 -8.242853e-01 -3.619372e-01
    outer loop
      vertex  -1.951202e+01 -2.439798e+01  5.755654e+01
      vertex  -5.818198e+00 -3.393497e+01  6.280384e+01
      vertex  -1.448315e+01 -3.290486e+01  7.088103e+01
    endloop
  endfacet
  facet normal -1.823566e-01  8.828792e-01  4.327476e-01
    outer loop
      vertex   3.111716e+01  2.649944e+01  1.124342e+02
      vertex   3.536323e+01  3.064352e+01  1.057688e+02
      vertex   3.004106e+01  3.060115e+01  1.036126e+02
    endloop
  endfacet
  facet normal -5.832915e-01 -8.105567e-01 -5.262056e-02
    outer loop
      vertex   3.118093e+01 -4.130659e+01  2.711434e+01
      vertex   2.772405e+01 -3.977682e+01  4.186900e+01
      vertex   1.629631e+01 -3.071138e+01  2.890167e+01
    endloop
  endfacet
  facet normal  6.628138e-01 -7.026053e-01  2.588891e-01
    outer loop
      vertex   5.315333e+00 -1.699988e+01  8.026006e+01
      vertex  -6.772095e+00 -2.736722e+01  8.307040e+01
      vertex  -5.818198e+00 -3.393497e+01  6.280384e+01
    endloop
  endfacet
  facet normal -4.590415e-01  7.724965e-01  4.387824e-01
    outer loop
      vertex   9.679700e+00  4.997551e+00  1.001247e+02
      vertex   6.386195e+00  8.425776e+00  9.064359e+01
      vertex  -2.582051e+00  3.291964e+00  9.029958e+01
    endloop
  endfacet
  facet normal  9.415810e-01  2.903855e-01 -1.705923e-01
    outer loop
      vertex   7.417746e+01  6.971712e+00  4.144296e+01
      vertex   7.744384e+01 -9.292519e+00  3.178639e+01
      vertex   7.410368e+01 -2.433340e+00  2.502628e+01
    endloop
  endfacet
  facet normal  1.920674e-01 -8.700566e-01  4.539952e-01
    outer loop
      vertex   2.261688e+01  2.458947e+00  9.678728e+01
      vertex   2.954287e+01  1.176572e+01  1.116931e+02
      vertex   7.051953e+00 -3.029980e+00  9.285296e+01
    endloop
  endfacet
  facet normal  7.280461e-02  7.178414e-01  6.923894e-01
    outer loop
      vertex   7.410368e+01 -2.433340e+00  2.502628e+01
      vertex   7.744384e+01 -9.292519e+00  3.178639e+01
      vertex   8.299677e+01 -9.758068e+00  3.168516e+01
    endloop
  endfacet
  facet normal  1.814610e-01  9.832988e-01  1.397570e-02
    outer loop
      vertex   5.643939e+01  1.256831e+01  1.420601e+01
      vertex   5.483199e+01  1.299079e+01  5.351871e+00
      vertex   3.186299e+01  1.709135e+01  1.507627e+01
    endloop
  endfacet
  facet normal -4.444924e-01 -8.938035e-01  5.951406e-02
    outer loop
      vertex   1.269772e+01 -2.818157e+01  5.310379e+00
      vertex   1.784795e+01 -2.994757e+01  1.725342e+01
      vertex   7.337845e+00 -2.484254e+01  1.542577e+01
    endloop
  endfacet
  facet normal  8.826640e-01 -2.511926e-01 -3.972489e-01
    outer loop
      vertex   8.201183e+01 -2.244885e+01  2.569910e+01
      vertex   7.437795e+01 -1.698301e+01  5.280865e+00
      vertex   8.423294e+01 -1.080919e+01  2.327418e+01
    endloop
  endfacet
  facet normal -8.144638e-01 -2.846575e-01 -5.055876e-01
    outer loop
      vertex   7.373121e+00 -2.027311e+01  1.988605e+01
      vertex   6.419781e+00 -6.827970e+00  1.385189e+01
      vertex   1.006120e+01 -1.079148e+01  1.021739e+01
    endloop
  endfacet
  facet normal -3.900039e-01 -1.360234e-01  9.107111e-01
    outer loop
      vertex   4.875200e+01 -1.075025e+01  7.524890e+01
      vertex   2.923695e+01  1.372280e+00  6.870237e+01
      vertex   2.716111e+01 -2.021051e+01  6.458981e+01
    endloop
  endfacet
  facet normal -2.743689e-02 -2.321440e-01 -9.722944e-01
    outer loop
      vertex   1.987436e+01 -3.705016e+01  7.225319e+00
      vertex   1.269772e+01 -2.818157e+01  5.310379e+00
      vertex   4.647015e+01 -3.218012e+01  5.312054e+00
    endloop
  endfacet
  facet normal -2.703195e-03  7.391327e-03 -9.999689e-01
    outer loop
      vertex   5.492335e+01 -2.649934e-01  5.376235e+00
      vertex   7.047156e+01 -5.591371e+00  5.294834e+00
      vertex  -6.452787e+00 -2.276463e+01  5.375844e+00
    endloop
  endfacet
  facet normal -9.689551e-01  3.772549e-02 -2.443417e-01
    outer loop
      vertex  -2.159370e+01 -5.908784e+00  8.637942e+01
      vertex  -1.934169e+01 -1.290740e+00  7.816193e+01
      vertex  -2.001826e+01 -2.449141e+01  7.726279e+01
    endloop
  endfacet
  facet normal -8.008431e-01  4.821661e-01  3.551989e-01
    outer loop
      vertex   2.922699e+01  1.870715e+01  4.453949e+01
      vertex   2.856502e+01  2.642729e+01  3.256726e+01
      vertex   2.105088e+01  1.474404e+01  3.148511e+01
    endloop
  endfacet
  facet normal -5.415605e-01  7.676331e-01 -3.427123e-01
    outer loop
      vertex  -4.462166e+00  3.305618e+01  1.034802e+02
      vertex   8.380380e+00  4.398431e+01  1.076638e+02
      vertex   3.269821e+00  3.431559e+01  9.408290e+01
    endloop
  endfacet
  facet normal -3.364202e-01  3.173911e-01  8.866140e-01
    outer loop
      vertex  -2.159370e+01 -5.908784e+00  8.637942e+01
      vertex  -4.205371e+00 -8.040327e+00  9.374036e+01
      vertex  -2.582051e+00  3.291964e+00  9.029958e+01
    endloop
  endfacet
  facet normal -6.564721e-02 -8.172498e-01  5.725322e-01
    outer loop
      vertex   1.246042e+01 -2.763136e+01  5.231147e+01
      vertex   2.354934e+01 -3.161587e+01  4.789533e+01
      vertex   2.716111e+01 -2.021051e+01  6.458981e+01
    endloop
  endfacet
  facet normal  1.877835e-01  9.445598e-01  2.693403e-01
    outer loop
      vertex   3.265084e+01  1.657406e+01  5.956193e+01
      vertex   5.781429e+01  1.320491e+01  5.383342e+01
      vertex   4.615999e+01  1.662592e+01  4.996154e+01
    endloop
  endfacet
  facet normal  7.425983e-02 -6.908646e-01  7.191603e-01
    outer loop
      vertex   1.060813e+01  2.895355e+01  1.015166e+02
      vertex   1.621977e+01  4.100418e+01  1.125136e+02
      vertex   1.880368e+00  3.706637e+01  1.102114e+02
    endloop
  endfacet
  facet normal -2.873853e-02 -9.576595e-01 -2.864653e-01
    outer loop
      vertex   4.647015e+01 -3.218012e+01  5.312054e+00
      vertex   4.675091e+01 -3.368329e+01  1.030903e+01
      vertex   3.145263e+01 -3.474392e+01  1.538947e+01
    endloop
  endfacet
  facet normal -4.202574e-01 -6.321654e-01  6.509613e-01
    outer loop
      vertex   1.784795e+01 -2.994757e+01  1.725342e+01
      vertex   7.373121e+00 -2.027311e+01  1.988605e+01
      vertex   7.337845e+00 -2.484254e+01  1.542577e+01
    endloop
  endfacet
  facet normal -2.467796e-01  3.311431e-01  9.107381e-01
    outer loop
      vertex  -5.434093e+00  1.448322e+00  7.630634e+00
      vertex  -1.814861e+00 -7.484867e+00  1.185942e+01
      vertex   6.419781e+00 -6.827970e+00  1.385189e+01
    endloop
  endfacet
  facet normal  6.356720e-01 -7.663406e-01 -9.296842e-02
    outer loop
      vertex  -6.772095e+00 -2.736722e+01  8.307040e+01
      vertex   5.315333e+00 -1.699988e+01  8.026006e+01
      vertex   3.630415e+00 -1.940183e+01  8.853870e+01
    endloop
  endfacet
  facet normal  4.267998e-01  8.906177e-01 -1.569780e-01
    outer loop
      vertex   6.393593e+01  1.573615e+01  3.469513e+01
      vertex   6.309252e+01  1.391030e+01  2.204301e+01
      vertex   4.996050e+01  2.149426e+01  2.936674e+01
    endloop
  endfacet
  facet normal  7.198515e-02 -9.937315e-01  8.553227e-02
    outer loop
      vertex   3.949839e+01 -4.030412e+01  4.621829e+01
      vertex   4.271335e+01 -4.142763e+01  3.045938e+01
      vertex   4.920783e+01 -3.996623e+01  4.197237e+01
    endloop
  endfacet
  facet normal -2.122568e-01 -8.563271e-01  4.707983e-01
    outer loop
      vertex   4.255122e+01 -3.109136e+01  6.435158e+01
      vertex   2.772405e+01 -3.977682e+01  4.186900e+01
      vertex   3.949839e+01 -4.030412e+01  4.621829e+01
    endloop
  endfacet
  facet normal -1.990937e-02  9.911335e-01  1.313703e-01
    outer loop
      vertex   5.922304e+01  1.188685e+01  6.399116e+01
      vertex   5.781429e+01  1.320491e+01  5.383342e+01
      vertex   4.360511e+01  1.160811e+01  6.372718e+01
    endloop
  endfacet
  facet normal -6.534753e-01  6.248599e-01 -4.272237e-01
    outer loop
      vertex   2.113453e+00  1.671648e+01  3.244476e+01
      vertex  -7.553542e+00  1.506406e+00  2.498491e+01
      vertex  -8.192490e+00  1.445539e+01  4.490150e+01
    endloop
  endfacet
  facet normal  1.814967e-01 -9.831812e-01  2.033759e-02
    outer loop
      vertex   1.987436e+01 -3.705016e+01  7.225319e+00
      vertex   4.647015e+01 -3.218012e+01  5.312054e+00
      vertex   3.145263e+01 -3.474392e+01  1.538947e+01
    endloop
  endfacet
  facet normal  9.125149e-01 -4.032282e-01  6.872872e-02
    outer loop
      vertex   5.315333e+00 -1.699988e+01  8.026006e+01
      vertex   1.039755e+01 -3.888087e+00  8.970954e+01
      vertex   3.630415e+00 -1.940183e+01  8.853870e+01
    endloop
  endfacet
  facet normal -7.080160e-01  4.797119e-01 -5.182565e-01
    outer loop
      vertex  -4.462166e+00  3.305618e+01  1.034802e+02
      vertex   3.269821e+00  3.431559e+01  9.408290e+01
      vertex  -4.245932e+00  2.364100e+01  9.446986e+01
    endloop
  endfacet
  facet normal  3.235000e-03 -5.072922e-04 -9.999946e-01
    outer loop
      vertex   8.905133e+00  5.376803e+00  5.274907e+00
      vertex   2.239580e+01  1.855037e+01  5.311866e+00
      vertex  -4.568712e-01 -1.288179e+01  5.253883e+00
    endloop
  endfacet
  facet normal  6.150016e-01 -6.244608e-01  4.814790e-01
    outer loop
      vertex   6.775669e+01 -1.978535e+01  6.453250e+01
      vertex   6.242803e+01 -2.838229e+01  6.018897e+01
      vertex   7.184776e+01 -2.579500e+01  5.151261e+01
    endloop
  endfacet
  facet normal -1.867761e-01 -9.628176e-01 -1.951844e-01
    outer loop
      vertex  -1.425834e+00 -2.869783e+01  3.592781e+01
      vertex   1.629631e+01 -3.071138e+01  2.890167e+01
      vertex  -1.693329e+00 -3.041491e+01  4.465390e+01
    endloop
  endfacet
  facet normal -8.472638e-01  2.937465e-01 -4.425574e-01
    outer loop
      vertex   6.239258e+00  4.278805e+00  2.156959e+01
      vertex   1.039311e+01  6.124787e+00  1.484243e+01
      vertex   6.419781e+00 -6.827970e+00  1.385189e+01
    endloop
  endfacet
  facet normal  2.946799e-01 -9.549304e-01  3.566029e-02
    outer loop
      vertex   5.525984e+01 -2.912070e+01  1.460501e+01
      vertex   4.647015e+01 -3.218012e+01  5.312054e+00
      vertex   6.726598e+01 -2.576189e+01  5.335831e+00
    endloop
  endfacet
  facet normal -4.542710e-01  8.901260e-01 -3.624360e-02
    outer loop
      vertex   1.039311e+01  6.124787e+00  1.484243e+01
      vertex   6.239258e+00  4.278805e+00  2.156959e+01
      vertex   3.186299e+01  1.709135e+01  1.507627e+01
    endloop
  endfacet
  facet normal  1.536216e-01 -8.255078e-01 -5.430812e-01
    outer loop
      vertex   5.513577e+01 -3.381898e+01  2.171151e+01
      vertex   5.525984e+01 -2.912070e+01  1.460501e+01
      vertex   6.427756e+01 -2.907714e+01  1.708965e+01
    endloop
  endfacet
  facet normal  1.178151e-01  2.462272e-01  9.620248e-01
    outer loop
      vertex   1.132273e+01  1.069537e+01  6.851003e+01
      vertex   1.688177e+01 -3.674679e+00  7.150721e+01
      vertex   2.923695e+01  1.372280e+00  6.870237e+01
    endloop
  endfacet
  facet normal  3.805832e-01 -2.540848e-01  8.891554e-01
    outer loop
      vertex   6.775669e+01 -1.978535e+01  6.453250e+01
      vertex   4.875200e+01 -1.075025e+01  7.524890e+01
      vertex   4.788056e+01 -2.329202e+01  7.203797e+01
    endloop
  endfacet
  facet normal  2.119956e-01 -8.890373e-01  4.057961e-01
    outer loop
      vertex   7.337845e+00 -2.484254e+01  1.542577e+01
      vertex   1.371671e+00 -2.963838e+01  8.035669e+00
      vertex   1.269772e+01 -2.818157e+01  5.310379e+00
    endloop
  endfacet
  facet normal  5.452376e-01  8.218688e-01  1.650684e-01
    outer loop
      vertex   6.393593e+01  1.573615e+01  3.469513e+01
      vertex   5.667658e+01  1.893350e+01  4.275403e+01
      vertex   6.824212e+01  9.494752e+00  5.154704e+01
    endloop
  endfacet
  facet normal -8.747911e-01 -1.981712e-01 -4.421182e-01
    outer loop
      vertex  -2.051168e+01 -9.214548e+00  4.644172e+01
      vertex  -1.010805e+01 -2.098358e+01  3.113196e+01
      vertex  -1.561965e+01 -1.923495e+01  4.125364e+01
    endloop
  endfacet
  facet normal  5.140690e-01 -7.419022e-01 -4.304815e-01
    outer loop
      vertex  -4.711780e+00 -2.459898e+01  5.531302e+01
      vertex   1.397730e+01 -1.752172e+01  6.543388e+01
      vertex   1.500826e+00 -2.591761e+01  6.500450e+01
    endloop
  endfacet
  facet normal  4.059460e-01 -2.030016e-01  8.910658e-01
    outer loop
      vertex   4.875200e+01 -1.075025e+01  7.524890e+01
      vertex   6.775669e+01 -1.978535e+01  6.453250e+01
      vertex   6.376954e+01 -6.074312e+00  6.947257e+01
    endloop
  endfacet
  facet normal  7.256699e-02  9.942338e-01 -7.894935e-02
    outer loop
      vertex  -2.564851e+00  1.245848e+01  7.794855e+01
      vertex   1.132273e+01  1.069537e+01  6.851003e+01
      vertex  -5.462559e+00  1.113649e+01  5.863687e+01
    endloop
  endfacet
  facet normal  9.676845e-01 -1.671923e-01 -1.887684e-01
    outer loop
      vertex   7.716012e+01 -2.024839e+01  4.003556e+01
      vertex   7.523550e+01 -2.046164e+01  3.035824e+01
      vertex   7.744384e+01 -9.292519e+00  3.178639e+01
    endloop
  endfacet
  facet normal -5.623581e-01 -8.174810e-01  1.244110e-01
    outer loop
      vertex  -1.529506e+01 -1.733993e+01  5.517272e+01
      vertex  -1.561965e+01 -1.923495e+01  4.125364e+01
      vertex  -4.711780e+00 -2.459898e+01  5.531302e+01
    endloop
  endfacet
  facet normal -3.534062e-01  9.272038e-01 -1.240847e-01
    outer loop
      vertex   5.591862e+00  2.020020e+01  4.856943e+01
      vertex   2.113453e+00  1.671648e+01  3.244476e+01
      vertex  -8.192490e+00  1.445539e+01  4.490150e+01
    endloop
  endfacet
  facet normal  9.666292e-01  2.314697e-01 -1.097716e-01
    outer loop
      vertex   2.124067e+01  3.632899e+01  1.042267e+02
      vertex   1.948527e+01  3.863007e+01  9.362115e+01
      vertex   1.830935e+01  4.519733e+01  9.711421e+01
    endloop
  endfacet
  facet normal  1.132481e-01 -9.825084e-01  1.478249e-01
    outer loop
      vertex   1.629631e+01 -3.071138e+01  2.890167e+01
      vertex   1.246042e+01 -2.763136e+01  5.231147e+01
      vertex  -1.693329e+00 -3.041491e+01  4.465390e+01
    endloop
  endfacet
  facet normal  7.308155e-01  5.908443e-01 -3.417768e-01
    outer loop
      vertex   7.410368e+01 -2.433340e+00  2.502628e+01
      vertex   6.393593e+01  1.573615e+01  3.469513e+01
      vertex   7.417746e+01  6.971712e+00  4.144296e+01
    endloop
  endfacet
  facet normal -7.205256e-01  3.679405e-01 -5.877606e-01
    outer loop
      vertex   4.598203e+00  3.635846e+01  8.412896e+01
      vertex  -2.564851e+00  1.245848e+01  7.794855e+01
      vertex  -7.096308e+00  1.137935e+01  8.282804e+01
    endloop
  endfacet
  facet normal -7.979777e-01  2.162787e-02 -6.022987e-01
    outer loop
      vertex  -1.608183e+01  1.182789e+00  3.627231e+01
      vertex  -7.553542e+00  1.506406e+00  2.498491e+01
      vertex  -7.135612e+00 -1.508704e+01  2.383535e+01
    endloop
  endfacet
  facet normal -8.609822e-01 -1.172581e-01 -4.949345e-01
    outer loop
      vertex  -2.051168e+01 -9.214548e+00  4.644172e+01
      vertex  -1.608183e+01  1.182789e+00  3.627231e+01
      vertex  -1.010805e+01 -2.098358e+01  3.113196e+01
    endloop
  endfacet
  facet normal  3.407411e-01 -7.153710e-01  6.100327e-01
    outer loop
      vertex   1.060813e+01  2.895355e+01  1.015166e+02
      vertex   2.124067e+01  3.632899e+01  1.042267e+02
      vertex   1.621977e+01  4.100418e+01  1.125136e+02
    endloop
  endfacet
  facet normal  3.145977e-01 -2.071407e-01  9.263483e-01
    outer loop
      vertex   1.039755e+01 -3.888087e+00  8.970954e+01
      vertex  -4.205371e+00 -8.040327e+00  9.374036e+01
      vertex   3.630415e+00 -1.940183e+01  8.853870e+01
    endloop
  endfacet
  facet normal  5.893307e-01  3.212345e-02 -8.072529e-01
    outer loop
      vertex   3.330716e+00  1.961722e+01  8.253745e+01
      vertex  -2.564851e+00  1.245848e+01  7.794855e+01
      vertex   4.598203e+00  3.635846e+01  8.412896e+01
    endloop
  endfacet
  facet normal  8.330493e-01  5.369671e-01 -1.330230e-01
    outer loop
      vertex   7.410368e+01 -2.433340e+00  2.502628e+01
      vertex   6.309252e+01  1.391030e+01  2.204301e+01
      vertex   6.393593e+01  1.573615e+01  3.469513e+01
    endloop
  endfacet
  facet normal -9.241430e-01  3.688832e-01  9.942283e-02
    outer loop
      vertex   3.269821e+00  3.431559e+01  9.408290e+01
      vertex   6.276077e+00  4.275445e+01  9.071604e+01
      vertex  -7.096308e+00  1.137935e+01  8.282804e+01
    endloop
  endfacet
  facet normal  8.962578e-01 -2.218923e-01  3.840388e-01
    outer loop
      vertex   6.775669e+01 -1.978535e+01  6.453250e+01
      vertex   7.184776e+01 -2.579500e+01  5.151261e+01
      vertex   7.614129e+01 -2.216267e+00  5.511596e+01
    endloop
  endfacet
  facet normal -5.051947e-01  3.843365e-01  7.726991e-01
    outer loop
      vertex   1.006120e+01 -1.079148e+01  1.021739e+01
      vertex  -6.452787e+00 -2.276463e+01  5.375844e+00
      vertex   7.337845e+00 -2.484254e+01  1.542577e+01
    endloop
  endfacet
  facet normal  4.709738e-02  4.294333e-01 -9.018697e-01
    outer loop
      vertex   3.837430e+01  1.997420e+01  1.678900e+01
      vertex   5.643939e+01  1.256831e+01  1.420601e+01
      vertex   3.186299e+01  1.709135e+01  1.507627e+01
    endloop
  endfacet
  facet normal  3.739791e-01 -5.923551e-01  7.136211e-01
    outer loop
      vertex   6.242803e+01 -2.838229e+01  6.018897e+01
      vertex   6.775669e+01 -1.978535e+01  6.453250e+01
      vertex   4.788056e+01 -2.329202e+01  7.203797e+01
    endloop
  endfacet
  facet normal  6.986217e-01 -4.963068e-01 -5.153708e-01
    outer loop
      vertex  -4.711780e+00 -2.459898e+01  5.531302e+01
      vertex   1.500826e+00 -2.591761e+01  6.500450e+01
      vertex  -5.818198e+00 -3.393497e+01  6.280384e+01
    endloop
  endfacet
  facet normal -7.558361e-01  5.861193e-01  2.918488e-01
    outer loop
      vertex  -5.462559e+00  1.113649e+01  5.863687e+01
      vertex  -8.192490e+00  1.445539e+01  4.490150e+01
      vertex  -1.736278e+01 -2.177474e+00  5.455584e+01
    endloop
  endfacet
  facet normal -3.035949e-01  5.681071e-01 -7.649081e-01
    outer loop
      vertex  -7.553542e+00  1.506406e+00  2.498491e+01
      vertex   2.113453e+00  1.671648e+01  3.244476e+01
      vertex   6.239258e+00  4.278805e+00  2.156959e+01
    endloop
  endfacet
  facet normal  2.473573e-01  7.403315e-01 -6.250790e-01
    outer loop
      vertex   3.004106e+01  3.060115e+01  1.036126e+02
      vertex   3.536323e+01  3.064352e+01  1.057688e+02
      vertex   3.636321e+01  1.984985e+01  9.338074e+01
    endloop
  endfacet
  facet normal  8.039843e-01 -5.946462e-01 -2.290891e-03
    outer loop
      vertex   2.261688e+01  2.458947e+00  9.678728e+01
      vertex   3.819571e+01  2.346821e+01  1.107793e+02
      vertex   2.954287e+01  1.176572e+01  1.116931e+02
    endloop
  endfacet
  facet normal -9.094115e-01  1.347383e-01  3.934672e-01
    outer loop
      vertex  -2.154797e+00  2.062361e+01  1.003363e+02
      vertex  -4.245932e+00  2.364100e+01  9.446986e+01
      vertex  -9.316551e+00  8.589153e+00  8.790459e+01
    endloop
  endfacet
  facet normal  2.006431e-02  9.866511e-01 -1.616075e-01
    outer loop
      vertex   7.997745e+01 -3.087993e+00  2.175873e+01
      vertex   7.047156e+01 -5.591371e+00  5.294834e+00
      vertex   7.410368e+01 -2.433340e+00  2.502628e+01
    endloop
  endfacet
  facet normal -4.049140e-01 -6.234915e-01 -6.688072e-01
    outer loop
      vertex  -1.010805e+01 -2.098358e+01  3.113196e+01
      vertex  -7.135612e+00 -1.508704e+01  2.383535e+01
      vertex   7.373121e+00 -2.027311e+01  1.988605e+01
    endloop
  endfacet
  facet normal -7.783148e-01 -5.757388e-01  2.505010e-01
    outer loop
      vertex   1.784795e+01 -2.994757e+01  1.725342e+01
      vertex   1.269772e+01 -2.818157e+01  5.310379e+00
      vertex   1.987436e+01 -3.705016e+01  7.225319e+00
    endloop
  endfacet
  facet normal  6.523010e-01 -7.564691e-01 -4.751933e-02
    outer loop
      vertex   6.726598e+01 -2.576189e+01  5.335831e+00
      vertex   7.523550e+01 -2.046164e+01  3.035824e+01
      vertex   6.427756e+01 -2.907714e+01  1.708965e+01
    endloop
  endfacet
  facet normal  5.536559e-01 -7.970929e-01 -2.410561e-01
    outer loop
      vertex   1.039755e+01 -3.888087e+00  8.970954e+01
      vertex   1.318477e+01  5.107630e-01  8.156567e+01
      vertex   2.261688e+01  2.458947e+00  9.678728e+01
    endloop
  endfacet
  facet normal -9.479312e-01 -2.312895e-01  2.189324e-01
    outer loop
      vertex  -4.462166e+00  3.305618e+01  1.034802e+02
      vertex  -4.245932e+00  2.364100e+01  9.446986e+01
      vertex  -2.154797e+00  2.062361e+01  1.003363e+02
    endloop
  endfacet
  facet normal  4.438045e-01  1.548585e-02 -8.959898e-01
    outer loop
      vertex   3.636321e+01  1.984985e+01  9.338074e+01
      vertex   1.318477e+01  5.107630e-01  8.156567e+01
      vertex   9.657615e+00  7.293525e+00  7.993582e+01
    endloop
  endfacet
  facet normal -6.493443e-03 -1.000540e-03 -9.999784e-01
    outer loop
      vertex   7.437795e+01 -1.698301e+01  5.280865e+00
      vertex   6.726598e+01 -2.576189e+01  5.335831e+00
      vertex   7.047156e+01 -5.591371e+00  5.294834e+00
    endloop
  endfacet
  facet normal -2.935784e-02 -9.974453e-01  6.512214e-02
    outer loop
      vertex   3.949839e+01 -4.030412e+01  4.621829e+01
      vertex   3.118093e+01 -4.130659e+01  2.711434e+01
      vertex   4.271335e+01 -4.142763e+01  3.045938e+01
    endloop
  endfacet
  facet normal -6.610973e-01 -1.202852e-01 -7.405956e-01
    outer loop
      vertex  -1.529506e+01 -1.733993e+01  5.517272e+01
      vertex  -2.255702e+01 -7.863877e+00  6.011609e+01
      vertex  -1.736278e+01 -2.177474e+00  5.455584e+01
    endloop
  endfacet
  facet normal -1.427505e-01 -4.943028e-01 -8.574888e-01
    outer loop
      vertex   1.371671e+00 -2.963838e+01  8.035669e+00
      vertex  -6.452787e+00 -2.276463e+01  5.375844e+00
      vertex   1.269772e+01 -2.818157e+01  5.310379e+00
    endloop
  endfacet
  facet normal -9.266218e-01  3.654224e-01  8.853517e-02
    outer loop
      vertex   8.380380e+00  4.398431e+01  1.076638e+02
      vertex   6.276077e+00  4.275445e+01  9.071604e+01
      vertex   3.269821e+00  3.431559e+01  9.408290e+01
    endloop
  endfacet
  facet normal  5.328468e-01  4.001351e-02 -8.452652e-01
    outer loop
      vertex   4.598203e+00  3.635846e+01  8.412896e+01
      vertex   1.948527e+01  3.863007e+01  9.362115e+01
      vertex   3.330716e+00  1.961722e+01  8.253745e+01
    endloop
  endfacet
  facet normal -1.072292e-01 -7.236782e-01  6.817564e-01
    outer loop
      vertex   1.006120e+01 -1.079148e+01  1.021739e+01
      vertex   6.419781e+00 -6.827970e+00  1.385189e+01
      vertex  -1.814861e+00 -7.484867e+00  1.185942e+01
    endloop
  endfacet
  facet normal  4.618359e-01  4.650827e-01 -7.552521e-01
    outer loop
      vertex   5.643939e+01  1.256831e+01  1.420601e+01
      vertex   6.539270e+01  1.685113e+00  1.297910e+01
      vertex   5.492335e+01 -2.649934e-01  5.376235e+00
    endloop
  endfacet
  facet normal  7.923220e-01  3.368430e-01 -5.086871e-01
    outer loop
      vertex   7.997745e+01 -3.087993e+00  2.175873e+01
      vertex   8.423294e+01 -1.080919e+01  2.327418e+01
      vertex   7.047156e+01 -5.591371e+00  5.294834e+00
    endloop
  endfacet
  facet normal -2.513739e-01  6.059078e-02 -9.659917e-01
    outer loop
      vertex  -7.553542e+00  1.506406e+00  2.498491e+01
      vertex   6.239258e+00  4.278805e+00  2.156959e+01
      vertex  -7.135612e+00 -1.508704e+01  2.383535e+01
    endloop
  endfacet
  facet normal  7.032455e-01 -6.997684e-01 -1.255787e-01
    outer loop
      vertex   7.716012e+01 -2.024839e+01  4.003556e+01
      vertex   6.288568e+01 -3.411769e+01  3.738273e+01
      vertex   6.427756e+01 -2.907714e+01  1.708965e+01
    endloop
  endfacet
  facet normal -5.703768e-01 -4.010492e-01  7.168193e-01
    outer loop
      vertex  -2.154797e+00  2.062361e+01  1.003363e+02
      vertex  -9.316551e+00  8.589153e+00  8.790459e+01
      vertex  -2.582051e+00  3.291964e+00  9.029958e+01
    endloop
  endfacet
  facet normal  2.959597e-01 -2.061861e-01  9.326817e-01
    outer loop
      vertex   2.923695e+01  1.372280e+00  6.870237e+01
      vertex   1.688177e+01 -3.674679e+00  7.150721e+01
      vertex   2.716111e+01 -2.021051e+01  6.458981e+01
    endloop
  endfacet
  facet normal -3.504239e-01 -8.137940e-01 -4.636189e-01
    outer loop
      vertex   1.784795e+01 -2.994757e+01  1.725342e+01
      vertex   3.145263e+01 -3.474392e+01  1.538947e+01
      vertex   3.118093e+01 -4.130659e+01  2.711434e+01
    endloop
  endfacet
  facet normal  8.937657e-02  9.693821e-01 -2.287143e-01
    outer loop
      vertex   2.113453e+00  1.671648e+01  3.244476e+01
      vertex   5.591862e+00  2.020020e+01  4.856943e+01
      vertex   2.105088e+01  1.474404e+01  3.148511e+01
    endloop
  endfacet
  facet normal  2.189742e-01  8.637338e-01  4.538878e-01
    outer loop
      vertex   4.360511e+01  1.160811e+01  6.372718e+01
      vertex   5.781429e+01  1.320491e+01  5.383342e+01
      vertex   3.265084e+01  1.657406e+01  5.956193e+01
    endloop
  endfacet
  facet normal -2.437881e-02  6.337585e-01  7.731467e-01
    outer loop
      vertex   5.079567e+01  1.508498e+00  7.223270e+01
      vertex   5.922304e+01  1.188685e+01  6.399116e+01
      vertex   4.360511e+01  1.160811e+01  6.372718e+01
    endloop
  endfacet
  facet normal  5.748432e-01  7.697777e-01  2.774842e-01
    outer loop
      vertex   3.651894e+01  2.635740e+01  4.372159e+01
      vertex   4.996050e+01  2.149426e+01  2.936674e+01
      vertex   4.123325e+01  2.683197e+01  3.263881e+01
    endloop
  endfacet
  facet normal -8.292818e-01  4.241858e-01 -3.638105e-01
    outer loop
      vertex   2.890240e+01  2.060259e+01  9.455021e+01
      vertex   2.336201e+01  2.039640e+01  1.069388e+02
      vertex   3.004106e+01  3.060115e+01  1.036126e+02
    endloop
  endfacet
  facet normal -4.291134e-01  6.272478e-02  9.010701e-01
    outer loop
      vertex  -5.434093e+00  1.448322e+00  7.630634e+00
      vertex   6.419781e+00 -6.827970e+00  1.385189e+01
      vertex   1.039311e+01  6.124787e+00  1.484243e+01
    endloop
  endfacet
  facet normal  4.167950e-01  4.839131e-01 -7.694870e-01
    outer loop
      vertex   1.948527e+01  3.863007e+01  9.362115e+01
      vertex   4.598203e+00  3.635846e+01  8.412896e+01
      vertex   1.830935e+01  4.519733e+01  9.711421e+01
    endloop
  endfacet
  facet normal -5.853022e-01 -8.002538e-01 -1.304419e-01
    outer loop
      vertex   3.118093e+01 -4.130659e+01  2.711434e+01
      vertex   1.629631e+01 -3.071138e+01  2.890167e+01
      vertex   1.784795e+01 -2.994757e+01  1.725342e+01
    endloop
  endfacet
  facet normal -6.992971e-01 -3.617580e-01  6.165345e-01
    outer loop
      vertex  -2.159370e+01 -5.908784e+00  8.637942e+01
      vertex  -2.001826e+01 -2.449141e+01  7.726279e+01
      vertex  -1.411741e+01 -1.690699e+01  8.840600e+01
    endloop
  endfacet
  facet normal -3.386017e-01 -8.458287e-01 -4.122168e-01
    outer loop
      vertex  -2.272194e+01 -2.636111e+01  6.422137e+01
      vertex  -1.951202e+01 -2.439798e+01  5.755654e+01
      vertex  -1.448315e+01 -3.290486e+01  7.088103e+01
    endloop
  endfacet
  facet normal  1.901803e-01 -9.124588e-01  3.622851e-01
    outer loop
      vertex   5.515216e+01 -3.540131e+01  5.034921e+01
      vertex   3.949839e+01 -4.030412e+01  4.621829e+01
      vertex   4.920783e+01 -3.996623e+01  4.197237e+01
    endloop
  endfacet
  facet normal  5.862547e-01  7.969778e-01  1.453685e-01
    outer loop
      vertex   6.393593e+01  1.573615e+01  3.469513e+01
      vertex   6.824212e+01  9.494752e+00  5.154704e+01
      vertex   7.417746e+01  6.971712e+00  4.144296e+01
    endloop
  endfacet
  facet normal -7.668464e-01  5.266197e-01 -3.669038e-01
    outer loop
      vertex   3.269821e+00  3.431559e+01  9.408290e+01
      vertex  -7.096308e+00  1.137935e+01  8.282804e+01
      vertex  -4.245932e+00  2.364100e+01  9.446986e+01
    endloop
  endfacet
  facet normal  3.967167e-01 -8.928373e-01 -2.132073e-01
    outer loop
      vertex   6.288568e+01 -3.411769e+01  3.738273e+01
      vertex   4.271335e+01 -4.142763e+01  3.045938e+01
      vertex   5.513577e+01 -3.381898e+01  2.171151e+01
    endloop
  endfacet
  facet normal  6.390817e-01 -7.057880e-01 -3.056763e-01
    outer loop
      vertex   2.261688e+01  2.458947e+00  9.678728e+01
      vertex   1.318477e+01  5.107630e-01  8.156567e+01
      vertex   3.553004e+01  1.481942e+01  9.524541e+01
    endloop
  endfacet
  facet normal  8.194335e-01 -5.233565e-01  2.337234e-01
    outer loop
      vertex  -2.582051e+00  3.291964e+00  9.029958e+01
      vertex   4.804305e+00  1.435305e+01  8.917117e+01
      vertex   1.060813e+01  2.895355e+01  1.015166e+02
    endloop
  endfacet
  facet normal -2.236805e-02 -3.976263e-01  9.172747e-01
    outer loop
      vertex   1.688177e+01 -3.674679e+00  7.150721e+01
      vertex   1.397730e+01 -1.752172e+01  6.543388e+01
      vertex   2.716111e+01 -2.021051e+01  6.458981e+01
    endloop
  endfacet
  facet normal  6.834589e-01 -6.813291e-01  2.620582e-01
    outer loop
      vertex   3.553004e+01  1.481942e+01  9.524541e+01
      vertex   3.819571e+01  2.346821e+01  1.107793e+02
      vertex   2.261688e+01  2.458947e+00  9.678728e+01
    endloop
  endfacet
  facet normal  6.622762e-01  7.112080e-01 -2.357398e-01
    outer loop
      vertex   7.410368e+01 -2.433340e+00  2.502628e+01
      vertex   7.047156e+01 -5.591371e+00  5.294834e+00
      vertex   6.539270e+01  1.685113e+00  1.297910e+01
    endloop
  endfacet
  facet normal -9.491791e-01 -2.842587e-01 -1.351151e-01
    outer loop
      vertex  -2.001826e+01 -2.449141e+01  7.726279e+01
      vertex  -2.388985e+01 -7.028679e+00  6.772208e+01
      vertex  -2.255702e+01 -7.863877e+00  6.011609e+01
    endloop
  endfacet
  facet normal -2.438510e-01  5.513161e-02 -9.682443e-01
    outer loop
      vertex   6.239258e+00  4.278805e+00  2.156959e+01
      vertex   7.373121e+00 -2.027311e+01  1.988605e+01
      vertex  -7.135612e+00 -1.508704e+01  2.383535e+01
    endloop
  endfacet
  facet normal  9.216325e-01 -2.169903e-01  3.217278e-01
    outer loop
      vertex   7.184776e+01 -2.579500e+01  5.151261e+01
      vertex   7.716012e+01 -2.024839e+01  4.003556e+01
      vertex   7.614129e+01 -2.216267e+00  5.511596e+01
    endloop
  endfacet
  facet normal -5.991607e-01 -2.990081e-01  7.426983e-01
    outer loop
      vertex  -2.154797e+00  2.062361e+01  1.003363e+02
      vertex   1.880368e+00  3.706637e+01  1.102114e+02
      vertex  -4.462166e+00  3.305618e+01  1.034802e+02
    endloop
  endfacet
  facet normal  3.042200e-01 -6.826876e-01  6.643702e-01
    outer loop
      vertex   4.804305e+00  1.435305e+01  8.917117e+01
      vertex   2.124067e+01  3.632899e+01  1.042267e+02
      vertex   1.060813e+01  2.895355e+01  1.015166e+02
    endloop
  endfacet
  facet normal -1.487855e-01 -2.354834e-01 -9.604220e-01
    outer loop
      vertex  -4.711780e+00 -2.459898e+01  5.531302e+01
      vertex  -1.951202e+01 -2.439798e+01  5.755654e+01
      vertex  -1.529506e+01 -1.733993e+01  5.517272e+01
    endloop
  endfacet
  facet normal  3.026448e-01  8.722369e-01 -3.841991e-01
    outer loop
      vertex   4.996050e+01  2.149426e+01  2.936674e+01
      vertex   5.643939e+01  1.256831e+01  1.420601e+01
      vertex   3.837430e+01  1.997420e+01  1.678900e+01
    endloop
  endfacet
  facet normal -1.018397e-01 -8.670648e-01 -4.876753e-01
    outer loop
      vertex   3.118093e+01 -4.130659e+01  2.711434e+01
      vertex   3.145263e+01 -3.474392e+01  1.538947e+01
      vertex   4.675091e+01 -3.368329e+01  1.030903e+01
    endloop
  endfacet
  facet normal -7.060962e-02 -4.550891e-01  8.876420e-01
    outer loop
      vertex  -4.205371e+00 -8.040327e+00  9.374036e+01
      vertex  -1.411741e+01 -1.690699e+01  8.840600e+01
      vertex   3.630415e+00 -1.940183e+01  8.853870e+01
    endloop
  endfacet
  facet normal -3.409209e-01 -7.423129e-01 -5.768402e-01
    outer loop
      vertex  -1.010805e+01 -2.098358e+01  3.113196e+01
      vertex   7.373121e+00 -2.027311e+01  1.988605e+01
      vertex  -1.425834e+00 -2.869783e+01  3.592781e+01
    endloop
  endfacet
  facet normal  4.780621e-01 -8.551418e-01  2.004722e-01
    outer loop
      vertex   5.515216e+01 -3.540131e+01  5.034921e+01
      vertex   6.288568e+01 -3.411769e+01  3.738273e+01
      vertex   7.184776e+01 -2.579500e+01  5.151261e+01
    endloop
  endfacet
  facet normal -5.328447e-01  3.276738e-02 -8.455783e-01
    outer loop
      vertex  -1.951202e+01 -2.439798e+01  5.755654e+01
      vertex  -2.255702e+01 -7.863877e+00  6.011609e+01
      vertex  -1.529506e+01 -1.733993e+01  5.517272e+01
    endloop
  endfacet
  facet normal  4.356022e-01 -8.834868e-01  1.723420e-01
    outer loop
      vertex   5.515216e+01 -3.540131e+01  5.034921e+01
      vertex   4.920783e+01 -3.996623e+01  4.197237e+01
      vertex   6.288568e+01 -3.411769e+01  3.738273e+01
    endloop
  endfacet
  facet normal  8.003241e-01  2.750987e-01 -5.327308e-01
    outer loop
      vertex   8.423294e+01 -1.080919e+01  2.327418e+01
      vertex   7.437795e+01 -1.698301e+01  5.280865e+00
      vertex   7.047156e+01 -5.591371e+00  5.294834e+00
    endloop
  endfacet
  facet normal -3.737110e-01  9.269018e-01 -3.454371e-02
    outer loop
      vertex  -7.096308e+00  1.137935e+01  8.282804e+01
      vertex  -5.462559e+00  1.113649e+01  5.863687e+01
      vertex  -1.701632e+01  6.631052e+00  6.273796e+01
    endloop
  endfacet
  facet normal  3.702417e-01  9.283783e-01  3.216944e-02
    outer loop
      vertex   6.393593e+01  1.573615e+01  3.469513e+01
      vertex   4.996050e+01  2.149426e+01  2.936674e+01
      vertex   3.651894e+01  2.635740e+01  4.372159e+01
    endloop
  endfacet
  facet normal -1.305698e-03  9.487029e-01  3.161663e-01
    outer loop
      vertex   3.265084e+01  1.657406e+01  5.956193e+01
      vertex   5.591862e+00  2.020020e+01  4.856943e+01
      vertex   1.737378e+01  1.559568e+01  6.243464e+01
    endloop
  endfacet
  facet normal  3.672156e-01 -7.209840e-01  5.876520e-01
    outer loop
      vertex   7.051953e+00 -3.029980e+00  9.285296e+01
      vertex  -4.205371e+00 -8.040327e+00  9.374036e+01
      vertex   1.039755e+01 -3.888087e+00  8.970954e+01
    endloop
  endfacet
  facet normal -1.266893e-01 -6.115966e-01 -7.809605e-01
    outer loop
      vertex  -4.711780e+00 -2.459898e+01  5.531302e+01
      vertex  -5.818198e+00 -3.393497e+01  6.280384e+01
      vertex  -1.951202e+01 -2.439798e+01  5.755654e+01
    endloop
  endfacet
  facet normal -9.976435e-01 -4.934254e-02  4.767460e-02
    outer loop
      vertex   6.419781e+00 -6.827970e+00  1.385189e+01
      vertex   7.373121e+00 -2.027311e+01  1.988605e+01
      vertex   6.239258e+00  4.278805e+00  2.156959e+01
    endloop
  endfacet
  facet normal  7.933627e-02  7.358182e-01  6.725157e-01
    outer loop
      vertex   1.737378e+01  1.559568e+01  6.243464e+01
      vertex   1.132273e+01  1.069537e+01  6.851003e+01
      vertex   3.265084e+01  1.657406e+01  5.956193e+01
    endloop
  endfacet
  facet normal  1.689337e-01  9.854887e-01 -1.653714e-02
    outer loop
      vertex   3.186299e+01  1.709135e+01  1.507627e+01
      vertex   5.483199e+01  1.299079e+01  5.351871e+00
      vertex   2.239580e+01  1.855037e+01  5.311866e+00
    endloop
  endfacet
  facet normal  5.186715e-01  8.522373e-01  6.834721e-02
    outer loop
      vertex   6.386195e+00  8.425776e+00  9.064359e+01
      vertex   9.657615e+00  7.293525e+00  7.993582e+01
      vertex   4.804572e+00  1.032767e+01  7.893103e+01
    endloop
  endfacet
  facet normal -8.698072e-01  4.797399e-01  1.152609e-01
    outer loop
      vertex  -1.934169e+01 -1.290740e+00  7.816193e+01
      vertex  -1.701632e+01  6.631052e+00  6.273796e+01
      vertex  -2.388985e+01 -7.028679e+00  6.772208e+01
    endloop
  endfacet
  facet normal  5.568216e-01 -7.862745e-01 -2.678098e-01
    outer loop
      vertex   4.675091e+01 -3.368329e+01  1.030903e+01
      vertex   4.647015e+01 -3.218012e+01  5.312054e+00
      vertex   5.525984e+01 -2.912070e+01  1.460501e+01
    endloop
  endfacet
  facet normal -5.876574e-01 -7.879395e-01 -1.838751e-01
    outer loop
      vertex  -1.561965e+01 -1.923495e+01  4.125364e+01
      vertex  -1.010805e+01 -2.098358e+01  3.113196e+01
      vertex  -1.693329e+00 -3.041491e+01  4.465390e+01
    endloop
  endfacet
  facet normal  1.788594e-01 -9.334545e-01  3.109214e-01
    outer loop
      vertex  -5.818198e+00 -3.393497e+01  6.280384e+01
      vertex  -6.772095e+00 -2.736722e+01  8.307040e+01
      vertex  -1.448315e+01 -3.290486e+01  7.088103e+01
    endloop
  endfacet
  facet normal  2.428161e-01 -4.906129e-01  8.368629e-01
    outer loop
      vertex  -2.154797e+00  2.062361e+01  1.003363e+02
      vertex  -2.582051e+00  3.291964e+00  9.029958e+01
      vertex   1.060813e+01  2.895355e+01  1.015166e+02
    endloop
  endfacet
  facet normal  2.545682e-03  2.108243e-02 -9.997745e-01
    outer loop
      vertex   1.269772e+01 -2.818157e+01  5.310379e+00
      vertex  -6.452787e+00 -2.276463e+01  5.375844e+00
      vertex   4.647015e+01 -3.218012e+01  5.312054e+00
    endloop
  endfacet
  facet normal  1.118617e-01  8.873521e-01  4.473177e-01
    outer loop
      vertex   5.781429e+01  1.320491e+01  5.383342e+01
      vertex   5.667658e+01  1.893350e+01  4.275403e+01
      vertex   4.615999e+01  1.662592e+01  4.996154e+01
    endloop
  endfacet
  facet normal  3.558232e-01 -8.940054e-01 -2.722942e-01
    outer loop
      vertex   4.675091e+01 -3.368329e+01  1.030903e+01
      vertex   5.513577e+01 -3.381898e+01  2.171151e+01
      vertex   4.271335e+01 -4.142763e+01  3.045938e+01
    endloop
  endfacet
  facet normal  2.818740e-01 -5.438744e-01  7.904099e-01
    outer loop
      vertex  -2.154797e+00  2.062361e+01  1.003363e+02
      vertex   1.060813e+01  2.895355e+01  1.015166e+02
      vertex   1.880368e+00  3.706637e+01  1.102114e+02
    endloop
  endfacet
  facet normal -7.213067e-01  5.902274e-01  3.624199e-01
    outer loop
      vertex   3.004106e+01  3.060115e+01  1.036126e+02
      vertex   2.336201e+01  2.039640e+01  1.069388e+02
      vertex   3.111716e+01  2.649944e+01  1.124342e+02
    endloop
  endfacet
  facet normal  7.440709e-02 -9.645630e-01 -2.531441e-01
    outer loop
      vertex   5.525984e+01 -2.912070e+01  1.460501e+01
      vertex   6.726598e+01 -2.576189e+01  5.335831e+00
      vertex   6.427756e+01 -2.907714e+01  1.708965e+01
    endloop
  endfacet
  facet normal  8.855118e-01  3.939378e-01  2.463372e-01
    outer loop
      vertex   9.657615e+00  7.293525e+00  7.993582e+01
      vertex   1.688177e+01 -3.674679e+00  7.150721e+01
      vertex   1.132273e+01  1.069537e+01  6.851003e+01
    endloop
  endfacet
  facet normal  6.433589e-01 -3.574951e-01 -6.769687e-01
    outer loop
      vertex   3.553004e+01  1.481942e+01  9.524541e+01
      vertex   1.318477e+01  5.107630e-01  8.156567e+01
      vertex   3.636321e+01  1.984985e+01  9.338074e+01
    endloop
  endfacet
  facet normal  9.803743e-01 -1.862903e-01 -6.451492e-02
    outer loop
      vertex   3.819571e+01  2.346821e+01  1.107793e+02
      vertex   3.553004e+01  1.481942e+01  9.524541e+01
      vertex   3.636321e+01  1.984985e+01  9.338074e+01
    endloop
  endfacet
endsolid vcg
